M48
;Layer_Color=9474304
;FILE_FORMAT=2:5
INCH,TZ
;TYPE=PLATED
T1F00S00C0.01575
T2F00S00C0.02800
T3F00S00C0.03189
T4F00S00C0.03543
T5F00S00C0.04000
T6F00S00C0.04016
T7F00S00C0.04606
T8F00S00C0.04882
T9F00S00C0.07087
%
T01
X212598Y185630
X75197Y171260
T02
X152756Y107480
T03
X207087Y224803
Y232677
X214961
Y224803
X235433Y224803
Y232677
X243307
Y224803
T04
X179527Y228346
X189527
X82284Y232677
Y222677
T05
X179527Y193937
Y203937
Y213937
T06
X69843Y107465
Y117465
Y127465
Y137465
Y147465
X259843
Y137465
Y127465
Y117465
Y107465
Y157465
Y167465
Y177465
Y193465
Y203465
Y213465
Y223465
Y233465
X69843Y227465
Y217465
Y207465
Y197465
Y187465
Y177465
Y157465
T07
X198425Y107465
Y117465
Y127465
Y137465
Y147465
X248425
Y137465
Y127465
Y117465
Y107465
Y157465
Y167465
Y177465
X198425
Y167465
Y157465
T08
X86221Y115461
X100000
T09
X157480Y158661
X177165
M30
