G04*
G04 #@! TF.GenerationSoftware,Altium Limited,Altium Designer,18.1.7 (191)*
G04*
G04 Layer_Physical_Order=1*
G04 Layer_Color=255*
%FSLAX25Y25*%
%MOIN*%
G70*
G01*
G75*
%ADD12C,0.01000*%
%ADD15R,0.05591X0.07008*%
%ADD16R,0.13386X0.06299*%
%ADD17R,0.08661X0.09843*%
%ADD18R,0.37008X0.42520*%
%ADD19R,0.18110X0.04331*%
%ADD20R,0.11417X0.21260*%
%ADD21R,0.07874X0.13780*%
%ADD22R,0.10800X0.08500*%
%ADD39C,0.03937*%
%ADD40C,0.03150*%
%ADD41C,0.11811*%
%ADD42C,0.04724*%
%ADD43C,0.07874*%
%ADD44C,0.07480*%
%ADD45R,0.07677X0.07677*%
%ADD46C,0.07677*%
%ADD47C,0.02362*%
%ADD48C,0.05000*%
G36*
X266142Y100787D02*
X63779D01*
Y249606D01*
X266142D01*
Y100787D01*
D02*
G37*
%LPC*%
G36*
X120118Y244213D02*
X107441D01*
Y233847D01*
X107367Y233835D01*
X107302Y233829D01*
X85894D01*
X85788Y233849D01*
X85659Y233887D01*
X85516Y233945D01*
X85361Y234025D01*
X85194Y234128D01*
X85024Y234250D01*
X84627Y234586D01*
X84477Y234734D01*
X84417Y234811D01*
X83792Y235291D01*
X83065Y235592D01*
X82284Y235695D01*
X81502Y235592D01*
X80774Y235291D01*
X80150Y234811D01*
X79670Y234186D01*
X79368Y233458D01*
X79265Y232677D01*
X79368Y231896D01*
X79670Y231168D01*
X80150Y230543D01*
X80774Y230064D01*
X81502Y229762D01*
X82284Y229659D01*
X83065Y229762D01*
X83792Y230064D01*
X84417Y230543D01*
X84470Y230611D01*
X84835Y230954D01*
X85017Y231100D01*
X85194Y231226D01*
X85361Y231329D01*
X85516Y231409D01*
X85659Y231467D01*
X85788Y231506D01*
X85894Y231525D01*
X107302D01*
X107367Y231520D01*
X107441Y231507D01*
Y221693D01*
X120118D01*
X120159Y221210D01*
Y205719D01*
X120118Y205236D01*
X107441D01*
Y194608D01*
X107425Y194454D01*
X107358Y194266D01*
X107248Y194101D01*
X107074Y193940D01*
X106817Y193784D01*
X106468Y193641D01*
X106024Y193522D01*
X105487Y193433D01*
X104860Y193378D01*
X104521Y193369D01*
X90164D01*
X89825Y193378D01*
X89198Y193433D01*
X88661Y193522D01*
X88217Y193641D01*
X87868Y193784D01*
X87611Y193940D01*
X87437Y194101D01*
X87327Y194266D01*
X87260Y194454D01*
X87244Y194608D01*
Y196299D01*
X77323D01*
Y185197D01*
X87244D01*
Y186888D01*
X87260Y187042D01*
X87327Y187230D01*
X87437Y187395D01*
X87611Y187556D01*
X87868Y187712D01*
X88217Y187855D01*
X88661Y187974D01*
X89198Y188063D01*
X89825Y188118D01*
X90164Y188127D01*
X104521D01*
X104860Y188118D01*
X105487Y188063D01*
X106024Y187974D01*
X106468Y187855D01*
X106817Y187712D01*
X107074Y187556D01*
X107248Y187395D01*
X107358Y187230D01*
X107425Y187042D01*
X107441Y186888D01*
Y182717D01*
X110348D01*
X110594Y182703D01*
X111038Y182629D01*
X111493Y182506D01*
X111960Y182330D01*
X112440Y182101D01*
X112931Y181817D01*
X113427Y181483D01*
X114479Y180624D01*
X114695Y180417D01*
X115332Y179781D01*
X115059Y179347D01*
X114989Y179347D01*
X96169D01*
Y157087D01*
Y134827D01*
X115173D01*
Y152144D01*
X115673Y152243D01*
X115840Y151839D01*
X116257Y151296D01*
X119013Y148540D01*
X119556Y148124D01*
X120188Y147862D01*
X120866Y147773D01*
X121811D01*
Y147598D01*
X141181D01*
Y153189D01*
X121966D01*
X121778Y153421D01*
X121778Y153433D01*
X121903Y153790D01*
X122019Y153921D01*
X130996D01*
Y156587D01*
X121441D01*
Y154561D01*
X120941Y154311D01*
X120731Y154469D01*
Y164388D01*
X121193Y164579D01*
X121450Y164322D01*
X121503Y164261D01*
X121586Y164151D01*
X121655Y164046D01*
X121710Y163946D01*
X121753Y163853D01*
X121784Y163766D01*
X121805Y163684D01*
X121811Y163648D01*
Y160984D01*
X141181D01*
Y166575D01*
X122498D01*
X122497Y166575D01*
X122471Y166590D01*
X122463Y166595D01*
Y167307D01*
X130996D01*
Y170472D01*
Y173638D01*
X122463D01*
Y224870D01*
X122375Y225311D01*
X122126Y225685D01*
X120483Y227327D01*
X120431Y227389D01*
X120350Y227497D01*
X120282Y227601D01*
X120228Y227699D01*
X120186Y227792D01*
X120156Y227879D01*
X120135Y227962D01*
X120123Y228041D01*
X120118Y228142D01*
Y228979D01*
X120146Y229247D01*
X120213Y229435D01*
X120323Y229601D01*
X120496Y229761D01*
X120751Y229917D01*
X121099Y230060D01*
X121542Y230179D01*
X122077Y230268D01*
X122702Y230323D01*
X123039Y230332D01*
X136434D01*
X149797Y216969D01*
X150037Y216717D01*
X150487Y216187D01*
X150882Y215662D01*
X151221Y215143D01*
X151504Y214629D01*
X151734Y214121D01*
X151911Y213618D01*
X152036Y213121D01*
X152111Y212627D01*
X152126Y212346D01*
Y206260D01*
X161260D01*
Y209805D01*
X161288Y210074D01*
X161354Y210262D01*
X161465Y210427D01*
X161638Y210588D01*
X161893Y210744D01*
X162241Y210886D01*
X162684Y211005D01*
X163219Y211095D01*
X163844Y211150D01*
X164181Y211159D01*
X174656D01*
X175283Y211117D01*
X175565Y211080D01*
X175820Y211033D01*
X176037Y210978D01*
X176217Y210917D01*
X176357Y210854D01*
X176407Y210825D01*
X176411Y210820D01*
X177324Y210120D01*
X178387Y209679D01*
X179527Y209529D01*
X180668Y209679D01*
X181731Y210120D01*
X182644Y210820D01*
X183345Y211733D01*
X183785Y212796D01*
X183935Y213937D01*
X183785Y215078D01*
X183345Y216141D01*
X182644Y217054D01*
X182539Y217135D01*
X182537Y217137D01*
X182473Y217237D01*
X182406Y217374D01*
X182342Y217550D01*
X182283Y217763D01*
X182233Y218014D01*
X182193Y218293D01*
X182148Y218926D01*
Y226855D01*
X182442Y227565D01*
X182545Y228346D01*
X182442Y229128D01*
X182141Y229855D01*
X181661Y230481D01*
X181036Y230960D01*
X180308Y231262D01*
X179527Y231364D01*
X178746Y231262D01*
X178018Y230960D01*
X177393Y230481D01*
X176913Y229855D01*
X176612Y229128D01*
X176509Y228346D01*
X176612Y227565D01*
X176906Y226855D01*
Y218925D01*
X176861Y218292D01*
X176821Y218013D01*
X176771Y217763D01*
X176712Y217549D01*
X176648Y217374D01*
X176582Y217236D01*
X176517Y217136D01*
X176516Y217134D01*
X176411Y217054D01*
X176274Y216876D01*
X176203Y216809D01*
X176107Y216742D01*
X175974Y216672D01*
X175803Y216605D01*
X175594Y216544D01*
X175347Y216491D01*
X175072Y216449D01*
X174436Y216400D01*
X164181D01*
X163843Y216409D01*
X163219Y216464D01*
X162684Y216553D01*
X162241Y216673D01*
X161893Y216815D01*
X161638Y216971D01*
X161465Y217132D01*
X161354Y217297D01*
X161288Y217485D01*
X161260Y217753D01*
Y221299D01*
X153023D01*
X150666Y223513D01*
X139373Y234806D01*
X138830Y235223D01*
X138198Y235484D01*
X137520Y235574D01*
X123039D01*
X122702Y235583D01*
X122077Y235638D01*
X121542Y235727D01*
X121099Y235846D01*
X120751Y235988D01*
X120496Y236144D01*
X120323Y236305D01*
X120213Y236471D01*
X120146Y236658D01*
X120118Y236927D01*
Y244213D01*
D02*
G37*
G36*
X215461Y236003D02*
Y233177D01*
X218286D01*
X218236Y233555D01*
X217897Y234373D01*
X217358Y235075D01*
X216656Y235614D01*
X215838Y235953D01*
X215461Y236003D01*
D02*
G37*
G36*
X214461D02*
X214083Y235953D01*
X213265Y235614D01*
X212563Y235075D01*
X212024Y234373D01*
X211685Y233555D01*
X211635Y233177D01*
X214461D01*
Y236003D01*
D02*
G37*
G36*
X207587D02*
Y233177D01*
X210412D01*
X210362Y233555D01*
X210023Y234373D01*
X209485Y235075D01*
X208782Y235614D01*
X207964Y235953D01*
X207587Y236003D01*
D02*
G37*
G36*
X206587D02*
X206209Y235953D01*
X205391Y235614D01*
X204689Y235075D01*
X204150Y234373D01*
X203811Y233555D01*
X203761Y233177D01*
X206587D01*
Y236003D01*
D02*
G37*
G36*
X243307Y235695D02*
X242526Y235592D01*
X241798Y235291D01*
X241173Y234811D01*
X240693Y234186D01*
X240392Y233458D01*
X240289Y232677D01*
X240392Y231896D01*
X240693Y231168D01*
X241173Y230543D01*
X241798Y230064D01*
X242526Y229762D01*
X243307Y229659D01*
X243475Y229681D01*
X243823Y229376D01*
X245506Y227693D01*
X245476Y227541D01*
X244925Y227333D01*
X244816Y227417D01*
X244088Y227718D01*
X243307Y227821D01*
X242526Y227718D01*
X241798Y227417D01*
X241173Y226937D01*
X240693Y226312D01*
X240392Y225584D01*
X240289Y224803D01*
X240392Y224022D01*
X240693Y223294D01*
X241024Y222864D01*
X241059Y222192D01*
Y188451D01*
X236507Y183899D01*
X236007Y184106D01*
Y221861D01*
X236214Y221888D01*
X236942Y222189D01*
X237567Y222669D01*
X238047Y223294D01*
X238348Y224022D01*
X238451Y224803D01*
X238348Y225584D01*
X238047Y226312D01*
X237567Y226937D01*
X236942Y227417D01*
X236214Y227718D01*
X235433Y227821D01*
X234652Y227718D01*
X233924Y227417D01*
X233299Y226937D01*
X232819Y226312D01*
X232669Y225949D01*
X232169Y226049D01*
Y227415D01*
X234422Y229668D01*
X234557Y229780D01*
X234576Y229793D01*
X234652Y229762D01*
X235433Y229659D01*
X236214Y229762D01*
X236942Y230064D01*
X237567Y230543D01*
X238047Y231168D01*
X238348Y231896D01*
X238451Y232677D01*
X238348Y233458D01*
X238047Y234186D01*
X237567Y234811D01*
X236942Y235291D01*
X236214Y235592D01*
X235433Y235695D01*
X234652Y235592D01*
X233924Y235291D01*
X233299Y234811D01*
X233111Y234567D01*
X232662Y234267D01*
X228332Y229936D01*
X227845Y229207D01*
X227673Y228346D01*
Y162348D01*
X225037Y159713D01*
X203655D01*
X203555Y159722D01*
X203249Y159770D01*
X202963Y159837D01*
X202697Y159922D01*
X202450Y160023D01*
X202221Y160142D01*
X202008Y160277D01*
X201810Y160430D01*
X201713Y160521D01*
X201612Y160652D01*
X200679Y161368D01*
X199592Y161818D01*
X198425Y161972D01*
X197259Y161818D01*
X196172Y161368D01*
X195238Y160652D01*
X194522Y159718D01*
X194072Y158631D01*
X193918Y157465D01*
X194072Y156298D01*
X194522Y155211D01*
X195238Y154278D01*
X196172Y153561D01*
X197259Y153111D01*
X198425Y152957D01*
X199592Y153111D01*
X200679Y153561D01*
X201612Y154278D01*
X201713Y154409D01*
X201810Y154499D01*
X202008Y154652D01*
X202221Y154788D01*
X202450Y154906D01*
X202697Y155008D01*
X202963Y155092D01*
X203249Y155159D01*
X203555Y155208D01*
X203655Y155217D01*
X225969D01*
X226829Y155388D01*
X227558Y155875D01*
X231011Y159328D01*
X231511Y159121D01*
Y152407D01*
X228817Y149713D01*
X203655D01*
X203555Y149722D01*
X203249Y149770D01*
X202963Y149837D01*
X202697Y149922D01*
X202450Y150023D01*
X202221Y150142D01*
X202008Y150277D01*
X201810Y150430D01*
X201713Y150521D01*
X201612Y150652D01*
X200679Y151368D01*
X199592Y151818D01*
X198425Y151972D01*
X197259Y151818D01*
X196172Y151368D01*
X195238Y150652D01*
X194522Y149718D01*
X194072Y148631D01*
X193918Y147465D01*
X194072Y146298D01*
X194522Y145211D01*
X195238Y144278D01*
X196172Y143561D01*
X197259Y143111D01*
X198425Y142957D01*
X199592Y143111D01*
X200679Y143561D01*
X201612Y144278D01*
X201713Y144409D01*
X201810Y144499D01*
X202008Y144652D01*
X202221Y144788D01*
X202450Y144906D01*
X202697Y145008D01*
X202963Y145092D01*
X203249Y145159D01*
X203555Y145208D01*
X203655Y145217D01*
X229520D01*
X229727Y144717D01*
X224723Y139713D01*
X203655D01*
X203555Y139722D01*
X203249Y139770D01*
X202963Y139837D01*
X202697Y139921D01*
X202450Y140023D01*
X202221Y140142D01*
X202008Y140277D01*
X201810Y140430D01*
X201713Y140521D01*
X201612Y140652D01*
X200679Y141368D01*
X199592Y141818D01*
X198425Y141972D01*
X197259Y141818D01*
X196172Y141368D01*
X195238Y140652D01*
X194522Y139718D01*
X194072Y138631D01*
X193918Y137465D01*
X194072Y136298D01*
X194522Y135211D01*
X195238Y134278D01*
X196172Y133561D01*
X197259Y133111D01*
X198425Y132957D01*
X199592Y133111D01*
X200679Y133561D01*
X201612Y134278D01*
X201713Y134409D01*
X201810Y134499D01*
X202008Y134652D01*
X202221Y134787D01*
X202450Y134906D01*
X202697Y135008D01*
X202963Y135092D01*
X203249Y135159D01*
X203555Y135208D01*
X203655Y135217D01*
X225654D01*
X225860Y135258D01*
X226106Y134797D01*
X221022Y129712D01*
X203655D01*
X203555Y129722D01*
X203249Y129770D01*
X202963Y129837D01*
X202697Y129921D01*
X202450Y130023D01*
X202221Y130142D01*
X202008Y130277D01*
X201810Y130430D01*
X201713Y130521D01*
X201612Y130652D01*
X200679Y131368D01*
X199592Y131818D01*
X198425Y131972D01*
X197259Y131818D01*
X196172Y131368D01*
X195238Y130652D01*
X194522Y129718D01*
X194072Y128631D01*
X193918Y127465D01*
X194072Y126298D01*
X194522Y125211D01*
X195238Y124278D01*
X196172Y123561D01*
X197259Y123111D01*
X198425Y122958D01*
X199592Y123111D01*
X200679Y123561D01*
X201612Y124278D01*
X201713Y124409D01*
X201810Y124499D01*
X202008Y124652D01*
X202221Y124787D01*
X202450Y124906D01*
X202697Y125008D01*
X202963Y125092D01*
X203249Y125159D01*
X203555Y125208D01*
X203655Y125217D01*
X221953D01*
X222813Y125388D01*
X223542Y125875D01*
X243164Y145497D01*
X243610Y146164D01*
X243886Y146179D01*
X244142Y146129D01*
X244522Y145211D01*
X245238Y144278D01*
X246172Y143561D01*
X247259Y143111D01*
X248425Y142957D01*
X249592Y143111D01*
X250679Y143561D01*
X251612Y144278D01*
X252328Y145211D01*
X252679Y146057D01*
X253179Y145957D01*
Y143847D01*
X251869Y142538D01*
X251820Y142496D01*
X251656Y142396D01*
X251438Y142297D01*
X251167Y142206D01*
X250842Y142125D01*
X250480Y142060D01*
X249028Y141948D01*
X248620Y141946D01*
X248425Y141972D01*
X247259Y141818D01*
X246172Y141368D01*
X245238Y140652D01*
X244522Y139718D01*
X244072Y138631D01*
X243918Y137465D01*
X244072Y136298D01*
X244522Y135211D01*
X245238Y134278D01*
X246172Y133561D01*
X247259Y133111D01*
X248425Y132957D01*
X249592Y133111D01*
X250679Y133561D01*
X251612Y134278D01*
X252328Y135211D01*
X252779Y136298D01*
X252932Y137465D01*
X252907Y137660D01*
X252909Y138074D01*
X252966Y139085D01*
X253018Y139505D01*
X253085Y139882D01*
X253166Y140206D01*
X253258Y140478D01*
X253357Y140695D01*
X253457Y140859D01*
X253499Y140909D01*
X255145Y142555D01*
X255395Y142929D01*
X255483Y143370D01*
Y145264D01*
X255983Y145363D01*
X256025Y145261D01*
X256726Y144348D01*
X257639Y143647D01*
X258702Y143207D01*
X259843Y143057D01*
X260983Y143207D01*
X262047Y143647D01*
X262959Y144348D01*
X263660Y145261D01*
X264100Y146324D01*
X264250Y147465D01*
X264100Y148605D01*
X263660Y149669D01*
X262959Y150581D01*
X262047Y151282D01*
X260983Y151722D01*
X259843Y151872D01*
X258702Y151722D01*
X257639Y151282D01*
X256726Y150581D01*
X256025Y149669D01*
X255983Y149566D01*
X255483Y149665D01*
Y151491D01*
X256503Y152512D01*
X256549Y152550D01*
X256708Y152648D01*
X256919Y152744D01*
X257181Y152833D01*
X257495Y152912D01*
X257858Y152978D01*
X258264Y153027D01*
X259241Y153081D01*
X259650Y153082D01*
X259843Y153057D01*
X260983Y153207D01*
X262047Y153647D01*
X262959Y154348D01*
X263660Y155261D01*
X264100Y156324D01*
X264250Y157465D01*
X264100Y158605D01*
X263660Y159669D01*
X262959Y160581D01*
X262047Y161282D01*
X260983Y161722D01*
X259843Y161872D01*
X258702Y161722D01*
X257639Y161282D01*
X256726Y160581D01*
X256025Y159669D01*
X255585Y158605D01*
X255435Y157465D01*
X255459Y157281D01*
X255456Y156887D01*
X255397Y155907D01*
X255345Y155500D01*
X255278Y155136D01*
X255198Y154821D01*
X255108Y154558D01*
X255012Y154347D01*
X254914Y154188D01*
X254876Y154143D01*
X253516Y152783D01*
X253266Y152409D01*
X253179Y151969D01*
Y148972D01*
X252679Y148873D01*
X252328Y149718D01*
X251612Y150652D01*
X251456Y150771D01*
X251165Y151066D01*
X250490Y151821D01*
X250230Y152155D01*
X250014Y152465D01*
X250221Y152762D01*
X251169Y153868D01*
X251456Y154158D01*
X251612Y154278D01*
X252328Y155211D01*
X252779Y156298D01*
X252932Y157465D01*
X252779Y158631D01*
X252328Y159718D01*
X251612Y160652D01*
X250679Y161368D01*
X249592Y161818D01*
X248425Y161972D01*
X247259Y161818D01*
X246172Y161368D01*
X245238Y160652D01*
X244522Y159718D01*
X244322Y159236D01*
X243822Y159336D01*
Y165594D01*
X244322Y165693D01*
X244522Y165211D01*
X245238Y164278D01*
X246172Y163561D01*
X247259Y163111D01*
X248425Y162958D01*
X249592Y163111D01*
X250679Y163561D01*
X251612Y164278D01*
X251732Y164434D01*
X252026Y164725D01*
X252782Y165400D01*
X253116Y165660D01*
X253429Y165878D01*
X253716Y166051D01*
X253973Y166178D01*
X254197Y166262D01*
X254214Y166266D01*
X254221Y166264D01*
X254438Y166183D01*
X254688Y166061D01*
X254966Y165895D01*
X255270Y165684D01*
X255593Y165433D01*
X256325Y164781D01*
X256610Y164498D01*
X256726Y164348D01*
X257639Y163647D01*
X258702Y163207D01*
X259843Y163057D01*
X260983Y163207D01*
X262047Y163647D01*
X262959Y164348D01*
X263660Y165261D01*
X264100Y166324D01*
X264250Y167465D01*
X264100Y168605D01*
X263660Y169668D01*
X262959Y170581D01*
X262047Y171282D01*
X260983Y171722D01*
X259843Y171872D01*
X258702Y171722D01*
X257639Y171282D01*
X256726Y170581D01*
X256610Y170431D01*
X256325Y170149D01*
X255593Y169496D01*
X255270Y169245D01*
X254966Y169035D01*
X254688Y168868D01*
X254438Y168746D01*
X254221Y168665D01*
X254214Y168663D01*
X254197Y168667D01*
X253973Y168751D01*
X253716Y168878D01*
X253429Y169051D01*
X253128Y169261D01*
X252022Y170209D01*
X251732Y170496D01*
X251612Y170652D01*
X250679Y171368D01*
X249592Y171818D01*
X248425Y171972D01*
X247259Y171818D01*
X246172Y171368D01*
X245238Y170652D01*
X244522Y169718D01*
X244322Y169236D01*
X243822Y169336D01*
Y175594D01*
X244322Y175693D01*
X244522Y175211D01*
X245238Y174278D01*
X246172Y173561D01*
X247259Y173111D01*
X248425Y172958D01*
X249592Y173111D01*
X250679Y173561D01*
X251612Y174278D01*
X251732Y174434D01*
X252026Y174725D01*
X252782Y175400D01*
X253116Y175660D01*
X253429Y175878D01*
X253716Y176051D01*
X253973Y176178D01*
X254197Y176262D01*
X254214Y176266D01*
X254221Y176264D01*
X254438Y176183D01*
X254688Y176061D01*
X254966Y175895D01*
X255270Y175684D01*
X255593Y175433D01*
X256325Y174781D01*
X256610Y174498D01*
X256726Y174348D01*
X257639Y173647D01*
X258702Y173207D01*
X259843Y173057D01*
X260983Y173207D01*
X262047Y173647D01*
X262959Y174348D01*
X263660Y175261D01*
X264100Y176324D01*
X264250Y177465D01*
X264100Y178605D01*
X263660Y179668D01*
X262959Y180581D01*
X262047Y181282D01*
X260983Y181722D01*
X259843Y181872D01*
X258702Y181722D01*
X257639Y181282D01*
X256726Y180581D01*
X256610Y180431D01*
X256325Y180148D01*
X255593Y179496D01*
X255270Y179245D01*
X254966Y179034D01*
X254688Y178868D01*
X254438Y178746D01*
X254221Y178665D01*
X254214Y178663D01*
X254197Y178667D01*
X253973Y178751D01*
X253716Y178878D01*
X253429Y179051D01*
X253128Y179261D01*
X252022Y180209D01*
X251732Y180496D01*
X251612Y180652D01*
X250679Y181368D01*
X249592Y181818D01*
X248425Y181972D01*
X247259Y181818D01*
X247025Y181721D01*
X246741Y182145D01*
X249621Y185025D01*
X250108Y185754D01*
X250279Y186614D01*
Y228346D01*
X250108Y229207D01*
X249621Y229936D01*
X246241Y233316D01*
X246222Y233458D01*
X245921Y234186D01*
X245441Y234811D01*
X244816Y235291D01*
X244088Y235592D01*
X243307Y235695D01*
D02*
G37*
G36*
X218286Y232177D02*
X215461D01*
Y229352D01*
X215838Y229402D01*
X216656Y229740D01*
X217358Y230279D01*
X217897Y230982D01*
X218236Y231800D01*
X218286Y232177D01*
D02*
G37*
G36*
X214461D02*
X211635D01*
X211685Y231800D01*
X212024Y230982D01*
X212563Y230279D01*
X213265Y229740D01*
X214083Y229402D01*
X214461Y229352D01*
Y232177D01*
D02*
G37*
G36*
X210412D02*
X207587D01*
Y229352D01*
X207964Y229402D01*
X208782Y229740D01*
X209485Y230279D01*
X210023Y230982D01*
X210362Y231800D01*
X210412Y232177D01*
D02*
G37*
G36*
X206587D02*
X203761D01*
X203811Y231800D01*
X204150Y230982D01*
X204689Y230279D01*
X205391Y229740D01*
X206209Y229402D01*
X206587Y229352D01*
Y232177D01*
D02*
G37*
G36*
X259843Y237872D02*
X258702Y237722D01*
X257639Y237282D01*
X256726Y236581D01*
X256025Y235668D01*
X255585Y234605D01*
X255435Y233465D01*
X255585Y232324D01*
X256025Y231261D01*
X256726Y230348D01*
X257639Y229647D01*
X258702Y229207D01*
X259843Y229057D01*
X260983Y229207D01*
X262047Y229647D01*
X262959Y230348D01*
X263660Y231261D01*
X264100Y232324D01*
X264250Y233465D01*
X264100Y234605D01*
X263660Y235668D01*
X262959Y236581D01*
X262047Y237282D01*
X260983Y237722D01*
X259843Y237872D01*
D02*
G37*
G36*
X190027Y231672D02*
Y228847D01*
X192852D01*
X192803Y229224D01*
X192464Y230042D01*
X191925Y230744D01*
X191223Y231283D01*
X190405Y231622D01*
X190027Y231672D01*
D02*
G37*
G36*
X189027D02*
X188649Y231622D01*
X187831Y231283D01*
X187129Y230744D01*
X186590Y230042D01*
X186251Y229224D01*
X186202Y228847D01*
X189027D01*
Y231672D01*
D02*
G37*
G36*
X192852Y227847D02*
X190027D01*
Y225021D01*
X190405Y225071D01*
X191223Y225410D01*
X191925Y225949D01*
X192464Y226651D01*
X192803Y227469D01*
X192852Y227847D01*
D02*
G37*
G36*
X189027D02*
X186202D01*
X186251Y227469D01*
X186590Y226651D01*
X187129Y225949D01*
X187831Y225410D01*
X188649Y225071D01*
X189027Y225021D01*
Y227847D01*
D02*
G37*
G36*
X69843Y231872D02*
X68702Y231722D01*
X67639Y231282D01*
X66726Y230581D01*
X66025Y229668D01*
X65585Y228605D01*
X65435Y227465D01*
X65585Y226324D01*
X66025Y225261D01*
X66726Y224348D01*
X67639Y223647D01*
X68702Y223207D01*
X69843Y223057D01*
X70983Y223207D01*
X72047Y223647D01*
X72959Y224348D01*
X73660Y225261D01*
X74100Y226324D01*
X74250Y227465D01*
X74100Y228605D01*
X73660Y229668D01*
X72959Y230581D01*
X72047Y231282D01*
X70983Y231722D01*
X69843Y231872D01*
D02*
G37*
G36*
X82284Y225695D02*
X81502Y225592D01*
X80774Y225291D01*
X80150Y224811D01*
X79670Y224186D01*
X79368Y223458D01*
X79265Y222677D01*
X79368Y221896D01*
X79670Y221168D01*
X80150Y220543D01*
X80774Y220064D01*
X81502Y219762D01*
X82284Y219659D01*
X83065Y219762D01*
X83792Y220064D01*
X84417Y220543D01*
X84897Y221168D01*
X85199Y221896D01*
X85301Y222677D01*
X85199Y223458D01*
X84897Y224186D01*
X84417Y224811D01*
X83792Y225291D01*
X83065Y225592D01*
X82284Y225695D01*
D02*
G37*
G36*
X259843Y227872D02*
X258702Y227722D01*
X257639Y227282D01*
X256726Y226581D01*
X256025Y225669D01*
X255585Y224605D01*
X255435Y223465D01*
X255585Y222324D01*
X256025Y221261D01*
X256726Y220348D01*
X257639Y219647D01*
X258702Y219207D01*
X259843Y219057D01*
X260983Y219207D01*
X262047Y219647D01*
X262959Y220348D01*
X263660Y221261D01*
X264100Y222324D01*
X264250Y223465D01*
X264100Y224605D01*
X263660Y225669D01*
X262959Y226581D01*
X262047Y227282D01*
X260983Y227722D01*
X259843Y227872D01*
D02*
G37*
G36*
X69843Y221872D02*
X68702Y221722D01*
X67639Y221282D01*
X66726Y220581D01*
X66025Y219669D01*
X65585Y218605D01*
X65435Y217465D01*
X65585Y216324D01*
X66025Y215261D01*
X66726Y214348D01*
X67639Y213647D01*
X68702Y213207D01*
X69843Y213057D01*
X70983Y213207D01*
X72047Y213647D01*
X72959Y214348D01*
X73660Y215261D01*
X74100Y216324D01*
X74250Y217465D01*
X74100Y218605D01*
X73660Y219669D01*
X72959Y220581D01*
X72047Y221282D01*
X70983Y221722D01*
X69843Y221872D01*
D02*
G37*
G36*
X87614Y215173D02*
X82784D01*
Y209752D01*
X87614D01*
Y215173D01*
D02*
G37*
G36*
X81783D02*
X76953D01*
Y209752D01*
X81783D01*
Y215173D01*
D02*
G37*
G36*
X214961Y227821D02*
X214179Y227718D01*
X213452Y227417D01*
X212827Y226937D01*
X212347Y226312D01*
X212046Y225584D01*
X211943Y224803D01*
X212046Y224022D01*
X212347Y223294D01*
X212827Y222669D01*
X213452Y222190D01*
X214162Y221895D01*
X216582Y219475D01*
X216391Y219013D01*
X213655D01*
Y209253D01*
X225715D01*
Y219013D01*
X222306D01*
Y220079D01*
X222217Y220757D01*
X221955Y221389D01*
X221538Y221932D01*
X217868Y225602D01*
X217574Y226312D01*
X217095Y226937D01*
X216470Y227417D01*
X215742Y227718D01*
X214961Y227821D01*
D02*
G37*
G36*
X207087D02*
X206306Y227718D01*
X205578Y227417D01*
X204953Y226937D01*
X204473Y226312D01*
X204179Y225602D01*
X200115Y221538D01*
X199699Y220995D01*
X199437Y220363D01*
X199348Y219685D01*
Y219013D01*
X195939D01*
Y209253D01*
X207998D01*
Y219013D01*
X205656D01*
X205465Y219475D01*
X207885Y221895D01*
X208595Y222190D01*
X209221Y222669D01*
X209700Y223294D01*
X210002Y224022D01*
X210104Y224803D01*
X210002Y225584D01*
X209700Y226312D01*
X209221Y226937D01*
X208595Y227417D01*
X207868Y227718D01*
X207087Y227821D01*
D02*
G37*
G36*
X259843Y217872D02*
X258702Y217722D01*
X257639Y217282D01*
X256726Y216581D01*
X256025Y215669D01*
X255585Y214605D01*
X255435Y213465D01*
X255585Y212324D01*
X256025Y211261D01*
X256726Y210348D01*
X257639Y209647D01*
X258702Y209207D01*
X259843Y209057D01*
X260983Y209207D01*
X262047Y209647D01*
X262959Y210348D01*
X263660Y211261D01*
X264100Y212324D01*
X264250Y213465D01*
X264100Y214605D01*
X263660Y215669D01*
X262959Y216581D01*
X262047Y217282D01*
X260983Y217722D01*
X259843Y217872D01*
D02*
G37*
G36*
X87614Y208752D02*
X82784D01*
Y203331D01*
X87614D01*
Y208752D01*
D02*
G37*
G36*
X81783D02*
X76953D01*
Y203331D01*
X81783D01*
Y208752D01*
D02*
G37*
G36*
X69843Y211872D02*
X68702Y211722D01*
X67639Y211282D01*
X66726Y210581D01*
X66025Y209668D01*
X65585Y208605D01*
X65435Y207465D01*
X65585Y206324D01*
X66025Y205261D01*
X66726Y204348D01*
X67639Y203647D01*
X68702Y203207D01*
X69843Y203057D01*
X70031Y203082D01*
X70432Y203080D01*
X71411Y203023D01*
X71817Y202972D01*
X72181Y202906D01*
X72495Y202827D01*
X72758Y202737D01*
X72969Y202641D01*
X73128Y202543D01*
X73173Y202504D01*
X74045Y201633D01*
Y200596D01*
X73545Y200426D01*
X73223Y200845D01*
X72233Y201605D01*
X71080Y202083D01*
X70343Y202180D01*
Y197465D01*
X69843D01*
Y196965D01*
X65127D01*
X65224Y196227D01*
X65702Y195074D01*
X66462Y194084D01*
X67452Y193324D01*
X68605Y192847D01*
X69590Y192717D01*
Y192212D01*
X68605Y192083D01*
X67452Y191605D01*
X66462Y190845D01*
X65702Y189855D01*
X65224Y188702D01*
X65127Y187965D01*
X69843D01*
Y187465D01*
X70343D01*
Y182749D01*
X71080Y182846D01*
X72233Y183324D01*
X73223Y184084D01*
X73545Y184503D01*
X74045Y184333D01*
Y179988D01*
X73545Y179818D01*
X72959Y180581D01*
X72047Y181282D01*
X70983Y181722D01*
X69843Y181872D01*
X68702Y181722D01*
X67639Y181282D01*
X66726Y180581D01*
X66025Y179668D01*
X65585Y178605D01*
X65435Y177465D01*
X65585Y176324D01*
X66025Y175261D01*
X66726Y174348D01*
X67639Y173647D01*
X68702Y173207D01*
X69843Y173057D01*
X70983Y173207D01*
X72047Y173647D01*
X72959Y174348D01*
X73545Y175111D01*
X74045Y174941D01*
Y172874D01*
X74036Y172814D01*
X74023Y172758D01*
X74009Y172710D01*
X73993Y172670D01*
X73976Y172636D01*
X73961Y172612D01*
X73891Y172565D01*
X73491Y171967D01*
X73350Y171260D01*
X73491Y170553D01*
X73891Y169954D01*
X74490Y169554D01*
X75197Y169413D01*
X75665Y169507D01*
X76165Y169173D01*
Y157587D01*
X95169D01*
Y179347D01*
X76349D01*
Y202110D01*
X76261Y202551D01*
X76012Y202925D01*
X74803Y204134D01*
X74764Y204179D01*
X74666Y204338D01*
X74570Y204549D01*
X74480Y204812D01*
X74401Y205126D01*
X74335Y205490D01*
X74284Y205896D01*
X74228Y206875D01*
X74226Y207276D01*
X74250Y207465D01*
X74100Y208605D01*
X73660Y209668D01*
X72959Y210581D01*
X72047Y211282D01*
X70983Y211722D01*
X69843Y211872D01*
D02*
G37*
G36*
X179527Y208345D02*
X178387Y208195D01*
X177324Y207754D01*
X176411Y207054D01*
X175710Y206141D01*
X175270Y205078D01*
X175120Y203937D01*
X175270Y202796D01*
X175710Y201733D01*
X176411Y200820D01*
X177324Y200120D01*
X178387Y199679D01*
X179527Y199529D01*
X180668Y199679D01*
X181731Y200120D01*
X182644Y200820D01*
X183345Y201733D01*
X183785Y202796D01*
X183935Y203937D01*
X183785Y205078D01*
X183345Y206141D01*
X182644Y207054D01*
X181731Y207754D01*
X180668Y208195D01*
X179527Y208345D01*
D02*
G37*
G36*
X259843Y207872D02*
X258702Y207722D01*
X257639Y207282D01*
X256726Y206581D01*
X256025Y205668D01*
X255585Y204605D01*
X255435Y203465D01*
X255585Y202324D01*
X256025Y201261D01*
X256726Y200348D01*
X257639Y199647D01*
X258702Y199207D01*
X259843Y199057D01*
X260983Y199207D01*
X262047Y199647D01*
X262959Y200348D01*
X263660Y201261D01*
X264100Y202324D01*
X264250Y203465D01*
X264100Y204605D01*
X263660Y205668D01*
X262959Y206581D01*
X262047Y207282D01*
X260983Y207722D01*
X259843Y207872D01*
D02*
G37*
G36*
X69343Y202180D02*
X68605Y202083D01*
X67452Y201605D01*
X66462Y200845D01*
X65702Y199855D01*
X65224Y198702D01*
X65127Y197965D01*
X69343D01*
Y202180D01*
D02*
G37*
G36*
X208368Y201983D02*
X202468D01*
Y197233D01*
X208368D01*
Y201983D01*
D02*
G37*
G36*
X201468D02*
X195568D01*
Y197233D01*
X201468D01*
Y201983D01*
D02*
G37*
G36*
X226085D02*
X220185D01*
Y197233D01*
X226085D01*
Y201983D01*
D02*
G37*
G36*
X219185D02*
X213285D01*
Y197233D01*
X219185D01*
Y201983D01*
D02*
G37*
G36*
X161630Y201197D02*
X157193D01*
Y193807D01*
X161630D01*
Y201197D01*
D02*
G37*
G36*
X156193D02*
X151756D01*
Y193807D01*
X156193D01*
Y201197D01*
D02*
G37*
G36*
X226085Y196233D02*
X220185D01*
Y191483D01*
X226085D01*
Y196233D01*
D02*
G37*
G36*
X219185D02*
X213285D01*
Y191483D01*
X219185D01*
Y196233D01*
D02*
G37*
G36*
X208368Y196233D02*
X202468D01*
Y191483D01*
X208368D01*
Y196233D01*
D02*
G37*
G36*
X201468D02*
X195568D01*
Y191483D01*
X201468D01*
Y196233D01*
D02*
G37*
G36*
X179527Y198345D02*
X178387Y198195D01*
X177324Y197754D01*
X176411Y197054D01*
X175710Y196141D01*
X175270Y195078D01*
X175120Y193937D01*
X175137Y193806D01*
X175137Y193803D01*
X175111Y193687D01*
X175061Y193542D01*
X174983Y193373D01*
X174873Y193180D01*
X174732Y192968D01*
X174562Y192742D01*
X174147Y192263D01*
X155627Y173743D01*
X155211Y173200D01*
X154949Y172568D01*
X154859Y171890D01*
Y167530D01*
X154849Y167276D01*
X154791Y166794D01*
X154694Y166325D01*
X154558Y165869D01*
X154383Y165424D01*
X154168Y164988D01*
X153913Y164562D01*
X153616Y164145D01*
X153278Y163737D01*
X152969Y163414D01*
X152837Y163305D01*
X152020Y162310D01*
X151413Y161174D01*
X151039Y159943D01*
X150913Y158661D01*
X151039Y157380D01*
X151413Y156148D01*
X152020Y155013D01*
X152837Y154018D01*
X152969Y153909D01*
X153278Y153586D01*
X153616Y153177D01*
X153913Y152761D01*
X154168Y152335D01*
X154383Y151899D01*
X154558Y151454D01*
X154694Y150997D01*
X154791Y150529D01*
X154849Y150047D01*
X154859Y149792D01*
Y149432D01*
X154833Y148931D01*
X154730Y148347D01*
X154566Y147854D01*
X154346Y147445D01*
X154071Y147110D01*
X153736Y146835D01*
X153327Y146615D01*
X152834Y146451D01*
X152250Y146348D01*
X151749Y146322D01*
X142983D01*
X141207Y146377D01*
X141181Y146379D01*
Y146496D01*
X140541D01*
X140539Y146496D01*
X140538Y146496D01*
X121811D01*
Y140905D01*
X140538D01*
X140539Y140905D01*
X140541Y140905D01*
X141181D01*
Y140935D01*
X144277Y141080D01*
X152997D01*
X153457Y141063D01*
X154161Y140985D01*
X154841Y140856D01*
X155497Y140675D01*
X156131Y140443D01*
X156743Y140159D01*
X157335Y139822D01*
X157907Y139434D01*
X158403Y139037D01*
Y121660D01*
X158394Y121322D01*
X158339Y120694D01*
X158249Y120158D01*
X158130Y119713D01*
X157988Y119364D01*
X157831Y119107D01*
X157671Y118933D01*
X157505Y118823D01*
X157318Y118756D01*
X157163Y118740D01*
X153701D01*
Y117581D01*
X128740D01*
Y119095D01*
X121890D01*
Y110827D01*
X128740D01*
Y112340D01*
X150135D01*
Y109206D01*
X150022Y109059D01*
X149706Y108297D01*
X149599Y107480D01*
X149706Y106663D01*
X150022Y105902D01*
X150524Y105248D01*
X151177Y104746D01*
X151939Y104431D01*
X152756Y104323D01*
X153573Y104431D01*
X154334Y104746D01*
X154988Y105248D01*
X155490Y105902D01*
X155805Y106663D01*
X155913Y107480D01*
X155805Y108297D01*
X155490Y109059D01*
X155377Y109206D01*
Y111181D01*
X168346D01*
Y118740D01*
X164884D01*
X164729Y118756D01*
X164542Y118823D01*
X164377Y118933D01*
X164216Y119107D01*
X164059Y119364D01*
X163917Y119713D01*
X163798Y120158D01*
X163708Y120694D01*
X163653Y121322D01*
X163644Y121660D01*
Y140157D01*
X163555Y140836D01*
X163293Y141468D01*
X162877Y142011D01*
X162504Y142384D01*
X162190Y142721D01*
X161748Y143274D01*
X161359Y143846D01*
X161023Y144438D01*
X160739Y145050D01*
X160506Y145684D01*
X160325Y146341D01*
X160196Y147020D01*
X160118Y147724D01*
X160101Y148184D01*
Y149792D01*
X160111Y150047D01*
X160170Y150529D01*
X160267Y150998D01*
X160403Y151454D01*
X160578Y151899D01*
X160793Y152335D01*
X161048Y152761D01*
X161344Y153178D01*
X161683Y153586D01*
X161991Y153909D01*
X162124Y154018D01*
X162941Y155013D01*
X163548Y156148D01*
X163921Y157380D01*
X164047Y158661D01*
X163921Y159943D01*
X163548Y161174D01*
X162941Y162310D01*
X162124Y163305D01*
X161991Y163414D01*
X161683Y163737D01*
X161344Y164145D01*
X161048Y164562D01*
X160793Y164988D01*
X160578Y165424D01*
X160403Y165869D01*
X160267Y166325D01*
X160170Y166794D01*
X160111Y167276D01*
X160101Y167530D01*
Y170804D01*
X177853Y188556D01*
X178333Y188972D01*
X178558Y189141D01*
X178771Y189283D01*
X178963Y189392D01*
X179133Y189471D01*
X179277Y189521D01*
X179393Y189546D01*
X179396Y189547D01*
X179527Y189529D01*
X180668Y189679D01*
X181731Y190120D01*
X182644Y190820D01*
X183345Y191733D01*
X183785Y192796D01*
X183935Y193937D01*
X183785Y195078D01*
X183345Y196141D01*
X182644Y197054D01*
X181731Y197754D01*
X180668Y198195D01*
X179527Y198345D01*
D02*
G37*
G36*
X259843Y197872D02*
X258702Y197722D01*
X257639Y197282D01*
X256726Y196581D01*
X256025Y195668D01*
X255585Y194605D01*
X255435Y193465D01*
X255585Y192324D01*
X256025Y191261D01*
X256726Y190348D01*
X257639Y189647D01*
X258702Y189207D01*
X259843Y189057D01*
X260983Y189207D01*
X262047Y189647D01*
X262959Y190348D01*
X263660Y191261D01*
X264100Y192324D01*
X264250Y193465D01*
X264100Y194605D01*
X263660Y195668D01*
X262959Y196581D01*
X262047Y197282D01*
X260983Y197722D01*
X259843Y197872D01*
D02*
G37*
G36*
X213098Y187754D02*
Y186130D01*
X214723D01*
X214653Y186481D01*
X214171Y187202D01*
X213449Y187684D01*
X213098Y187754D01*
D02*
G37*
G36*
X212098D02*
X211747Y187684D01*
X211026Y187202D01*
X210544Y186481D01*
X210474Y186130D01*
X212098D01*
Y187754D01*
D02*
G37*
G36*
X161630Y192807D02*
X157193D01*
Y185417D01*
X161630D01*
Y192807D01*
D02*
G37*
G36*
X156193D02*
X151756D01*
Y185417D01*
X156193D01*
Y192807D01*
D02*
G37*
G36*
X214723Y185130D02*
X213098D01*
Y183505D01*
X213449Y183575D01*
X214171Y184057D01*
X214653Y184779D01*
X214723Y185130D01*
D02*
G37*
G36*
X212098D02*
X210474D01*
X210544Y184779D01*
X211026Y184057D01*
X211747Y183575D01*
X212098Y183505D01*
Y185130D01*
D02*
G37*
G36*
X69343Y186965D02*
X65127D01*
X65224Y186227D01*
X65702Y185074D01*
X66462Y184084D01*
X67452Y183324D01*
X68605Y182846D01*
X69343Y182749D01*
Y186965D01*
D02*
G37*
G36*
X198925Y182279D02*
Y177965D01*
X203240D01*
X203139Y178728D01*
X202652Y179905D01*
X201876Y180915D01*
X200865Y181691D01*
X199688Y182179D01*
X198925Y182279D01*
D02*
G37*
G36*
X197925D02*
X197162Y182179D01*
X195985Y181691D01*
X194974Y180915D01*
X194199Y179905D01*
X193711Y178728D01*
X193611Y177965D01*
X197925D01*
Y182279D01*
D02*
G37*
G36*
X203240Y176965D02*
X198925D01*
Y172650D01*
X199688Y172751D01*
X200865Y173238D01*
X201876Y174014D01*
X202652Y175024D01*
X203139Y176201D01*
X203240Y176965D01*
D02*
G37*
G36*
X197925D02*
X193611D01*
X193711Y176201D01*
X194199Y175024D01*
X194974Y174014D01*
X195985Y173238D01*
X197162Y172751D01*
X197925Y172650D01*
Y176965D01*
D02*
G37*
G36*
X141551Y173638D02*
X131996D01*
Y170972D01*
X141551D01*
Y173638D01*
D02*
G37*
G36*
Y169972D02*
X131996D01*
Y167307D01*
X141551D01*
Y169972D01*
D02*
G37*
G36*
X198425Y171972D02*
X197259Y171818D01*
X196172Y171368D01*
X195238Y170652D01*
X194522Y169718D01*
X194072Y168631D01*
X193918Y167465D01*
X194072Y166298D01*
X194522Y165211D01*
X195238Y164278D01*
X196172Y163561D01*
X197259Y163111D01*
X198425Y162958D01*
X199592Y163111D01*
X200679Y163561D01*
X201612Y164278D01*
X202328Y165211D01*
X202779Y166298D01*
X202932Y167465D01*
X202779Y168631D01*
X202328Y169718D01*
X201612Y170652D01*
X200679Y171368D01*
X199592Y171818D01*
X198425Y171972D01*
D02*
G37*
G36*
X177665Y165551D02*
Y159161D01*
X184055D01*
X183971Y160015D01*
X183576Y161317D01*
X182935Y162516D01*
X182072Y163568D01*
X181020Y164431D01*
X179821Y165072D01*
X178519Y165467D01*
X177665Y165551D01*
D02*
G37*
G36*
X176665D02*
X175812Y165467D01*
X174510Y165072D01*
X173310Y164431D01*
X172259Y163568D01*
X171396Y162516D01*
X170755Y161317D01*
X170360Y160015D01*
X170276Y159161D01*
X176665D01*
Y165551D01*
D02*
G37*
G36*
X141551Y160252D02*
X131996D01*
Y157587D01*
X141551D01*
Y160252D01*
D02*
G37*
G36*
X130996D02*
X121441D01*
Y157587D01*
X130996D01*
Y160252D01*
D02*
G37*
G36*
X141551Y156587D02*
X131996D01*
Y153921D01*
X141551D01*
Y156587D01*
D02*
G37*
G36*
X69843Y161872D02*
X68702Y161722D01*
X67639Y161282D01*
X66726Y160581D01*
X66025Y159669D01*
X65585Y158605D01*
X65435Y157465D01*
X65585Y156324D01*
X66025Y155261D01*
X66726Y154348D01*
X67639Y153647D01*
X68702Y153207D01*
X69843Y153057D01*
X70983Y153207D01*
X72047Y153647D01*
X72959Y154348D01*
X73660Y155261D01*
X74100Y156324D01*
X74250Y157465D01*
X74100Y158605D01*
X73660Y159669D01*
X72959Y160581D01*
X72047Y161282D01*
X70983Y161722D01*
X69843Y161872D01*
D02*
G37*
G36*
X184055Y158161D02*
X177665D01*
Y151772D01*
X178519Y151856D01*
X179821Y152251D01*
X181020Y152892D01*
X182072Y153755D01*
X182935Y154806D01*
X183576Y156006D01*
X183971Y157308D01*
X184055Y158161D01*
D02*
G37*
G36*
X176665D02*
X170276D01*
X170360Y157308D01*
X170755Y156006D01*
X171396Y154806D01*
X172259Y153755D01*
X173310Y152892D01*
X174510Y152251D01*
X175812Y151856D01*
X176665Y151772D01*
Y158161D01*
D02*
G37*
G36*
X69843Y151872D02*
X68702Y151722D01*
X67639Y151282D01*
X66726Y150581D01*
X66025Y149669D01*
X65585Y148605D01*
X65435Y147465D01*
X65585Y146324D01*
X66025Y145261D01*
X66726Y144348D01*
X67639Y143647D01*
X68702Y143207D01*
X69843Y143057D01*
X70983Y143207D01*
X72047Y143647D01*
X72959Y144348D01*
X73660Y145261D01*
X74100Y146324D01*
X74250Y147465D01*
X74100Y148605D01*
X73660Y149669D01*
X72959Y150581D01*
X72047Y151282D01*
X70983Y151722D01*
X69843Y151872D01*
D02*
G37*
G36*
X95169Y156587D02*
X76165D01*
Y134827D01*
X95169D01*
Y156587D01*
D02*
G37*
G36*
X259843Y141872D02*
X258702Y141722D01*
X257639Y141282D01*
X256726Y140581D01*
X256025Y139669D01*
X255585Y138605D01*
X255435Y137465D01*
X255462Y137259D01*
X255465Y136827D01*
X255418Y135854D01*
X255371Y135451D01*
X255308Y135089D01*
X255231Y134776D01*
X255143Y134514D01*
X255047Y134304D01*
X254949Y134145D01*
X254910Y134098D01*
X253516Y132704D01*
X253266Y132331D01*
X253179Y131890D01*
Y128972D01*
X252679Y128873D01*
X252328Y129718D01*
X251612Y130652D01*
X250679Y131368D01*
X249592Y131818D01*
X248425Y131972D01*
X247259Y131818D01*
X246172Y131368D01*
X245238Y130652D01*
X244522Y129718D01*
X244072Y128631D01*
X243918Y127465D01*
X244072Y126298D01*
X244522Y125211D01*
X245238Y124278D01*
X246172Y123561D01*
X247259Y123111D01*
X248425Y122958D01*
X249592Y123111D01*
X250679Y123561D01*
X251612Y124278D01*
X252328Y125211D01*
X252679Y126057D01*
X253179Y125957D01*
Y123847D01*
X251869Y122538D01*
X251820Y122496D01*
X251656Y122396D01*
X251438Y122298D01*
X251167Y122206D01*
X250842Y122125D01*
X250480Y122060D01*
X249028Y121948D01*
X248620Y121946D01*
X248425Y121972D01*
X247259Y121818D01*
X246172Y121368D01*
X245238Y120652D01*
X244522Y119718D01*
X244072Y118631D01*
X243918Y117465D01*
X244072Y116298D01*
X244522Y115211D01*
X245238Y114278D01*
X246172Y113561D01*
X247259Y113111D01*
X248425Y112958D01*
X249592Y113111D01*
X250679Y113561D01*
X251612Y114278D01*
X252328Y115211D01*
X252779Y116298D01*
X252932Y117465D01*
X252907Y117659D01*
X252909Y118074D01*
X252966Y119085D01*
X253018Y119505D01*
X253085Y119881D01*
X253166Y120206D01*
X253258Y120478D01*
X253357Y120695D01*
X253457Y120859D01*
X253499Y120909D01*
X255145Y122555D01*
X255395Y122929D01*
X255483Y123370D01*
Y125264D01*
X255983Y125364D01*
X256025Y125261D01*
X256726Y124348D01*
X257639Y123647D01*
X258702Y123207D01*
X259843Y123057D01*
X260983Y123207D01*
X262047Y123647D01*
X262959Y124348D01*
X263660Y125261D01*
X264100Y126324D01*
X264250Y127465D01*
X264100Y128605D01*
X263660Y129668D01*
X262959Y130581D01*
X262047Y131282D01*
X260983Y131722D01*
X259843Y131872D01*
X258702Y131722D01*
X257639Y131282D01*
X256726Y130581D01*
X256025Y129668D01*
X255983Y129566D01*
X255483Y129665D01*
Y131413D01*
X256548Y132477D01*
X256592Y132515D01*
X256751Y132613D01*
X256962Y132710D01*
X257226Y132801D01*
X257542Y132882D01*
X257894Y132949D01*
X259308Y133073D01*
X259673Y133079D01*
X259843Y133057D01*
X260983Y133207D01*
X262047Y133647D01*
X262959Y134348D01*
X263660Y135261D01*
X264100Y136324D01*
X264250Y137465D01*
X264100Y138605D01*
X263660Y139669D01*
X262959Y140581D01*
X262047Y141282D01*
X260983Y141722D01*
X259843Y141872D01*
D02*
G37*
G36*
X69843D02*
X68702Y141722D01*
X67639Y141282D01*
X66726Y140581D01*
X66025Y139669D01*
X65585Y138605D01*
X65435Y137465D01*
X65585Y136324D01*
X66025Y135261D01*
X66726Y134348D01*
X67639Y133647D01*
X68702Y133207D01*
X69843Y133057D01*
X70983Y133207D01*
X72047Y133647D01*
X72959Y134348D01*
X73660Y135261D01*
X74100Y136324D01*
X74250Y137465D01*
X74100Y138605D01*
X73660Y139669D01*
X72959Y140581D01*
X72047Y141282D01*
X70983Y141722D01*
X69843Y141872D01*
D02*
G37*
G36*
Y131872D02*
X68702Y131722D01*
X67639Y131282D01*
X66726Y130581D01*
X66025Y129668D01*
X65585Y128605D01*
X65435Y127465D01*
X65585Y126324D01*
X66025Y125261D01*
X66726Y124348D01*
X67639Y123647D01*
X68702Y123207D01*
X69843Y123057D01*
X70983Y123207D01*
X72047Y123647D01*
X72959Y124348D01*
X73660Y125261D01*
X74100Y126324D01*
X74250Y127465D01*
X74100Y128605D01*
X73660Y129668D01*
X72959Y130581D01*
X72047Y131282D01*
X70983Y131722D01*
X69843Y131872D01*
D02*
G37*
G36*
X197925Y122279D02*
X197162Y122179D01*
X195985Y121691D01*
X194974Y120915D01*
X194199Y119905D01*
X193711Y118728D01*
X193626Y118080D01*
X193126Y118113D01*
Y119110D01*
X185933D01*
Y115461D01*
X193126D01*
Y116816D01*
X193626Y116849D01*
X193711Y116201D01*
X194199Y115024D01*
X194974Y114014D01*
X195985Y113238D01*
X197162Y112751D01*
X197925Y112650D01*
Y117465D01*
Y122279D01*
D02*
G37*
G36*
X198925D02*
Y117965D01*
X203240D01*
X203139Y118728D01*
X202652Y119905D01*
X201876Y120915D01*
X200865Y121691D01*
X199688Y122179D01*
X198925Y122279D01*
D02*
G37*
G36*
X86721Y120374D02*
Y115961D01*
X91134D01*
X91030Y116750D01*
X90533Y117950D01*
X89742Y118982D01*
X88710Y119773D01*
X87509Y120271D01*
X86721Y120374D01*
D02*
G37*
G36*
X85720D02*
X84932Y120271D01*
X83731Y119773D01*
X82699Y118982D01*
X81908Y117950D01*
X81410Y116750D01*
X81307Y115961D01*
X85720D01*
Y120374D01*
D02*
G37*
G36*
X184933Y119110D02*
X177740D01*
Y115461D01*
X184933D01*
Y119110D01*
D02*
G37*
G36*
X259843Y121872D02*
X258702Y121722D01*
X257639Y121282D01*
X256726Y120581D01*
X256025Y119668D01*
X255585Y118605D01*
X255435Y117465D01*
X255585Y116324D01*
X256025Y115261D01*
X256726Y114348D01*
X257639Y113647D01*
X258702Y113207D01*
X259843Y113057D01*
X260983Y113207D01*
X262047Y113647D01*
X262959Y114348D01*
X263660Y115261D01*
X264100Y116324D01*
X264250Y117465D01*
X264100Y118605D01*
X263660Y119668D01*
X262959Y120581D01*
X262047Y121282D01*
X260983Y121722D01*
X259843Y121872D01*
D02*
G37*
G36*
X69843D02*
X68702Y121722D01*
X67639Y121282D01*
X66726Y120581D01*
X66025Y119668D01*
X65585Y118605D01*
X65435Y117465D01*
X65585Y116324D01*
X66025Y115261D01*
X66726Y114348D01*
X67639Y113647D01*
X68702Y113207D01*
X69843Y113057D01*
X70983Y113207D01*
X72047Y113647D01*
X72959Y114348D01*
X73660Y115261D01*
X74100Y116324D01*
X74250Y117465D01*
X74100Y118605D01*
X73660Y119668D01*
X72959Y120581D01*
X72047Y121282D01*
X70983Y121722D01*
X69843Y121872D01*
D02*
G37*
G36*
X203240Y116965D02*
X198925D01*
Y112650D01*
X199688Y112751D01*
X200865Y113238D01*
X201876Y114014D01*
X202652Y115024D01*
X203139Y116201D01*
X203240Y116965D01*
D02*
G37*
G36*
X100000Y120067D02*
X98808Y119910D01*
X97697Y119450D01*
X96743Y118718D01*
X96011Y117764D01*
X95551Y116653D01*
X95394Y115461D01*
X95551Y114269D01*
X96011Y113157D01*
X96743Y112204D01*
X97697Y111471D01*
X98808Y111011D01*
X100000Y110854D01*
X101192Y111011D01*
X102303Y111471D01*
X103257Y112204D01*
X103745Y112840D01*
X111417D01*
Y110827D01*
X118268D01*
Y119095D01*
X111417D01*
Y118081D01*
X103745D01*
X103257Y118718D01*
X102303Y119450D01*
X101192Y119910D01*
X100000Y120067D01*
D02*
G37*
G36*
X193126Y114461D02*
X185933D01*
Y110811D01*
X193126D01*
Y114461D01*
D02*
G37*
G36*
X184933D02*
X177740D01*
Y110811D01*
X184933D01*
Y114461D01*
D02*
G37*
G36*
X91134Y114961D02*
X86721D01*
Y110547D01*
X87509Y110651D01*
X88710Y111148D01*
X89742Y111940D01*
X90533Y112971D01*
X91030Y114172D01*
X91134Y114961D01*
D02*
G37*
G36*
X85720D02*
X81307D01*
X81410Y114172D01*
X81908Y112971D01*
X82699Y111940D01*
X83731Y111148D01*
X84932Y110651D01*
X85720Y110547D01*
Y114961D01*
D02*
G37*
G36*
X259843Y111872D02*
X258702Y111722D01*
X257639Y111282D01*
X256726Y110581D01*
X256025Y109669D01*
X255585Y108605D01*
X255435Y107465D01*
X255585Y106324D01*
X256025Y105261D01*
X256726Y104348D01*
X257639Y103647D01*
X258702Y103207D01*
X259843Y103057D01*
X260983Y103207D01*
X262047Y103647D01*
X262959Y104348D01*
X263660Y105261D01*
X264100Y106324D01*
X264250Y107465D01*
X264100Y108605D01*
X263660Y109669D01*
X262959Y110581D01*
X262047Y111282D01*
X260983Y111722D01*
X259843Y111872D01*
D02*
G37*
G36*
X69843D02*
X68702Y111722D01*
X67639Y111282D01*
X66726Y110581D01*
X66025Y109669D01*
X65585Y108605D01*
X65435Y107465D01*
X65585Y106324D01*
X66025Y105261D01*
X66726Y104348D01*
X67639Y103647D01*
X68702Y103207D01*
X69843Y103057D01*
X70983Y103207D01*
X72047Y103647D01*
X72959Y104348D01*
X73660Y105261D01*
X74100Y106324D01*
X74250Y107465D01*
X74100Y108605D01*
X73660Y109669D01*
X72959Y110581D01*
X72047Y111282D01*
X70983Y111722D01*
X69843Y111872D01*
D02*
G37*
G36*
X252894Y111933D02*
X243957D01*
Y102996D01*
X252894D01*
Y111933D01*
D02*
G37*
G36*
X198425Y111972D02*
X197259Y111818D01*
X196172Y111368D01*
X195238Y110652D01*
X194522Y109718D01*
X194072Y108631D01*
X193918Y107465D01*
X194072Y106298D01*
X194522Y105211D01*
X195238Y104278D01*
X196172Y103561D01*
X197259Y103111D01*
X198425Y102957D01*
X199592Y103111D01*
X200679Y103561D01*
X201612Y104278D01*
X202328Y105211D01*
X202779Y106298D01*
X202932Y107465D01*
X202779Y108631D01*
X202328Y109718D01*
X201612Y110652D01*
X200679Y111368D01*
X199592Y111818D01*
X198425Y111972D01*
D02*
G37*
%LPD*%
G36*
X108095Y231677D02*
X108085Y231772D01*
X108054Y231857D01*
X108004Y231932D01*
X107933Y231997D01*
X107842Y232052D01*
X107731Y232097D01*
X107599Y232132D01*
X107447Y232157D01*
X107275Y232172D01*
X107083Y232177D01*
Y233177D01*
X107275Y233182D01*
X107447Y233197D01*
X107599Y233222D01*
X107731Y233257D01*
X107842Y233302D01*
X107933Y233357D01*
X108004Y233422D01*
X108054Y233497D01*
X108085Y233582D01*
X108095Y233677D01*
Y231677D01*
D02*
G37*
G36*
X84194Y234111D02*
X84629Y233742D01*
X84839Y233593D01*
X85045Y233466D01*
X85247Y233362D01*
X85444Y233281D01*
X85637Y233223D01*
X85826Y233189D01*
X86010Y233177D01*
Y232177D01*
X85826Y232166D01*
X85637Y232131D01*
X85444Y232073D01*
X85247Y231993D01*
X85045Y231889D01*
X84839Y231762D01*
X84629Y231612D01*
X84414Y231439D01*
X83970Y231024D01*
Y234331D01*
X84194Y234111D01*
D02*
G37*
G36*
X119516Y236516D02*
X119634Y236181D01*
X119831Y235886D01*
X120106Y235630D01*
X120460Y235414D01*
X120894Y235236D01*
X121405Y235099D01*
X121996Y235000D01*
X122665Y234941D01*
X123413Y234921D01*
Y230984D01*
X122665Y230965D01*
X121996Y230906D01*
X121405Y230807D01*
X120894Y230669D01*
X120460Y230492D01*
X120106Y230276D01*
X119831Y230020D01*
X119634Y229725D01*
X119516Y229390D01*
X119476Y229016D01*
Y236890D01*
X119516Y236516D01*
D02*
G37*
G36*
X119483Y227978D02*
X119504Y227836D01*
X119540Y227695D01*
X119589Y227553D01*
X119653Y227412D01*
X119731Y227271D01*
X119823Y227129D01*
X119929Y226988D01*
X120049Y226846D01*
X120183Y226705D01*
Y225291D01*
X120049Y225418D01*
X119929Y225517D01*
X119823Y225588D01*
X119731Y225630D01*
X119653Y225644D01*
X119589Y225630D01*
X119540Y225588D01*
X119504Y225517D01*
X119483Y225418D01*
X119476Y225291D01*
Y228119D01*
X119483Y227978D01*
D02*
G37*
G36*
X181502Y218953D02*
X181554Y218225D01*
X181600Y217905D01*
X181658Y217615D01*
X181729Y217354D01*
X181814Y217124D01*
X181911Y216922D01*
X182022Y216750D01*
X182145Y216608D01*
X176909Y216608D01*
X177032Y216750D01*
X177143Y216922D01*
X177240Y217123D01*
X177325Y217354D01*
X177396Y217615D01*
X177455Y217905D01*
X177500Y218224D01*
X177552Y218953D01*
X177559Y219361D01*
X181496Y219361D01*
X181502Y218953D01*
D02*
G37*
G36*
X152768Y220657D02*
X152780Y212137D01*
X152751Y212692D01*
X152667Y213248D01*
X152527Y213804D01*
X152331Y214360D01*
X152079Y214917D01*
X151771Y215474D01*
X151408Y216031D01*
X150989Y216588D01*
X150514Y217146D01*
X149984Y217705D01*
Y223272D01*
X152768Y220657D01*
D02*
G37*
G36*
X176969Y211209D02*
X176826Y211323D01*
X176653Y211425D01*
X176451Y211516D01*
X176219Y211594D01*
X175957Y211660D01*
X175666Y211715D01*
X175346Y211757D01*
X174616Y211805D01*
X174206Y211811D01*
X174011Y215748D01*
X174419Y215755D01*
X175145Y215810D01*
X175464Y215859D01*
X175752Y215921D01*
X176011Y215997D01*
X176240Y216087D01*
X176439Y216191D01*
X176609Y216309D01*
X176749Y216440D01*
X176969Y211209D01*
D02*
G37*
G36*
X160657Y217342D02*
X160775Y217008D01*
X160972Y216713D01*
X161248Y216457D01*
X161602Y216240D01*
X162035Y216063D01*
X162547Y215925D01*
X163138Y215827D01*
X163807Y215768D01*
X164555Y215748D01*
Y211811D01*
X163807Y211791D01*
X163138Y211732D01*
X162547Y211634D01*
X162035Y211496D01*
X161602Y211319D01*
X161248Y211102D01*
X160972Y210846D01*
X160775Y210551D01*
X160657Y210216D01*
X160618Y209842D01*
Y217717D01*
X160657Y217342D01*
D02*
G37*
G36*
X108095Y186811D02*
X108055Y187185D01*
X107937Y187520D01*
X107739Y187815D01*
X107463Y188071D01*
X107108Y188287D01*
X106673Y188465D01*
X106160Y188602D01*
X105568Y188701D01*
X104896Y188760D01*
X104146Y188779D01*
Y192717D01*
X104896Y192736D01*
X105568Y192795D01*
X106160Y192894D01*
X106673Y193032D01*
X107108Y193209D01*
X107463Y193425D01*
X107739Y193681D01*
X107937Y193976D01*
X108055Y194311D01*
X108095Y194685D01*
Y186811D01*
D02*
G37*
G36*
X86630Y194311D02*
X86748Y193976D01*
X86946Y193681D01*
X87222Y193425D01*
X87577Y193209D01*
X88012Y193032D01*
X88525Y192894D01*
X89117Y192795D01*
X89789Y192736D01*
X90539Y192717D01*
Y188779D01*
X89789Y188760D01*
X89117Y188701D01*
X88525Y188602D01*
X88012Y188465D01*
X87577Y188287D01*
X87222Y188071D01*
X86946Y187815D01*
X86748Y187520D01*
X86630Y187185D01*
X86590Y186811D01*
Y194685D01*
X86630Y194311D01*
D02*
G37*
G36*
X119476Y183359D02*
X119502Y182101D01*
X115460Y180575D01*
X114905Y181105D01*
X113810Y181999D01*
X113272Y182362D01*
X112739Y182670D01*
X112212Y182922D01*
X111690Y183118D01*
X111175Y183258D01*
X110665Y183342D01*
X110161Y183371D01*
X119476Y183359D01*
D02*
G37*
G36*
X121830Y166281D02*
X121990Y166144D01*
X122065Y166088D01*
X122138Y166040D01*
X122207Y166002D01*
X122273Y165972D01*
X122336Y165950D01*
X122396Y165937D01*
X122453Y165933D01*
X122465Y163534D01*
X122457Y163674D01*
X122435Y163814D01*
X122399Y163955D01*
X122348Y164096D01*
X122283Y164237D01*
X122204Y164379D01*
X122111Y164521D01*
X122004Y164663D01*
X121882Y164806D01*
X121746Y164949D01*
Y166363D01*
X121830Y166281D01*
D02*
G37*
G36*
X234576Y230476D02*
X234525Y230482D01*
X234459Y230466D01*
X234377Y230429D01*
X234279Y230370D01*
X234167Y230290D01*
X233894Y230065D01*
X233559Y229754D01*
X233367Y229566D01*
X231164Y231817D01*
X233215Y233490D01*
X234576Y230476D01*
D02*
G37*
G36*
X246655Y231950D02*
X244789Y229362D01*
X244598Y229551D01*
X243792Y230257D01*
X243715Y230303D01*
X243654Y230329D01*
X243609Y230334D01*
X245655Y232932D01*
X246655Y231950D01*
D02*
G37*
G36*
X244946Y223087D02*
X244932Y223032D01*
X244920Y222950D01*
X244901Y222705D01*
X244883Y221895D01*
X244882Y221625D01*
X241732D01*
X241653Y223116D01*
X244960D01*
X244946Y223087D01*
D02*
G37*
G36*
X251586Y179736D02*
X252734Y178752D01*
X253080Y178511D01*
X253408Y178314D01*
X253717Y178161D01*
X254008Y178052D01*
X254213Y178003D01*
X254408Y178049D01*
X254693Y178155D01*
X254994Y178304D01*
X255314Y178494D01*
X255650Y178727D01*
X256004Y179002D01*
X256765Y179680D01*
X257172Y180083D01*
Y174846D01*
X256765Y175249D01*
X256004Y175927D01*
X255650Y176202D01*
X255314Y176435D01*
X254994Y176626D01*
X254693Y176774D01*
X254408Y176880D01*
X254213Y176926D01*
X254008Y176877D01*
X253717Y176768D01*
X253408Y176615D01*
X253080Y176418D01*
X252734Y176177D01*
X252370Y175893D01*
X251586Y175193D01*
X251167Y174778D01*
Y180152D01*
X251586Y179736D01*
D02*
G37*
G36*
Y169736D02*
X252734Y168752D01*
X253080Y168511D01*
X253408Y168315D01*
X253717Y168161D01*
X254008Y168052D01*
X254213Y168003D01*
X254408Y168049D01*
X254693Y168155D01*
X254994Y168304D01*
X255314Y168494D01*
X255650Y168727D01*
X256004Y169002D01*
X256765Y169680D01*
X257172Y170083D01*
Y164847D01*
X256765Y165249D01*
X256004Y165927D01*
X255650Y166202D01*
X255314Y166435D01*
X254994Y166626D01*
X254693Y166774D01*
X254408Y166880D01*
X254213Y166926D01*
X254008Y166877D01*
X253717Y166768D01*
X253408Y166615D01*
X253080Y166418D01*
X252734Y166177D01*
X252370Y165893D01*
X251586Y165193D01*
X251167Y164778D01*
Y170152D01*
X251586Y169736D01*
D02*
G37*
G36*
X201393Y159940D02*
X201638Y159751D01*
X201900Y159584D01*
X202180Y159440D01*
X202477Y159318D01*
X202792Y159217D01*
X203125Y159140D01*
X203475Y159084D01*
X203843Y159051D01*
X204229Y159039D01*
Y155890D01*
X203843Y155879D01*
X203475Y155845D01*
X203125Y155790D01*
X202792Y155712D01*
X202477Y155612D01*
X202180Y155489D01*
X201900Y155345D01*
X201638Y155178D01*
X201393Y154989D01*
X201167Y154778D01*
Y160152D01*
X201393Y159940D01*
D02*
G37*
G36*
X259794Y153725D02*
X259223Y153724D01*
X258207Y153668D01*
X257762Y153613D01*
X257360Y153540D01*
X256999Y153450D01*
X256681Y153342D01*
X256405Y153216D01*
X256171Y153072D01*
X255979Y152910D01*
X255275Y153619D01*
X255436Y153810D01*
X255579Y154044D01*
X255705Y154320D01*
X255814Y154638D01*
X255906Y154999D01*
X255980Y155402D01*
X256037Y155847D01*
X256098Y156866D01*
X256102Y157438D01*
X259794Y153725D01*
D02*
G37*
G36*
X250697Y154304D02*
X249712Y153156D01*
X249472Y152810D01*
X249275Y152482D01*
X249267Y152465D01*
X249275Y152447D01*
X249472Y152120D01*
X249712Y151774D01*
X249997Y151409D01*
X250697Y150625D01*
X251112Y150206D01*
X245738D01*
X246154Y150625D01*
X247138Y151774D01*
X247378Y152120D01*
X247575Y152447D01*
X247584Y152465D01*
X247575Y152482D01*
X247378Y152810D01*
X247138Y153156D01*
X246854Y153520D01*
X246154Y154304D01*
X245738Y154723D01*
X251112D01*
X250697Y154304D01*
D02*
G37*
G36*
X201393Y149940D02*
X201638Y149751D01*
X201900Y149584D01*
X202180Y149440D01*
X202477Y149318D01*
X202792Y149217D01*
X203125Y149139D01*
X203475Y149084D01*
X203843Y149050D01*
X204229Y149039D01*
Y145890D01*
X203843Y145879D01*
X203475Y145845D01*
X203125Y145790D01*
X202792Y145712D01*
X202477Y145612D01*
X202180Y145489D01*
X201900Y145345D01*
X201638Y145178D01*
X201393Y144989D01*
X201167Y144778D01*
Y150152D01*
X201393Y149940D01*
D02*
G37*
G36*
X253099Y141431D02*
X252934Y141236D01*
X252788Y140997D01*
X252660Y140714D01*
X252550Y140387D01*
X252457Y140016D01*
X252382Y139601D01*
X252326Y139143D01*
X252266Y138093D01*
X252264Y137503D01*
X248464Y141303D01*
X249054Y141306D01*
X250562Y141422D01*
X250977Y141496D01*
X251347Y141589D01*
X251674Y141699D01*
X251957Y141827D01*
X252196Y141974D01*
X252391Y142138D01*
X253099Y141431D01*
D02*
G37*
G36*
X201393Y139940D02*
X201638Y139751D01*
X201900Y139584D01*
X202180Y139440D01*
X202477Y139318D01*
X202792Y139217D01*
X203125Y139139D01*
X203475Y139084D01*
X203843Y139050D01*
X204229Y139039D01*
Y135890D01*
X203843Y135879D01*
X203475Y135845D01*
X203125Y135790D01*
X202792Y135712D01*
X202477Y135612D01*
X202180Y135489D01*
X201900Y135345D01*
X201638Y135178D01*
X201393Y134989D01*
X201167Y134778D01*
Y140152D01*
X201393Y139940D01*
D02*
G37*
G36*
X198325Y127262D02*
X198188Y127388D01*
X197779Y127819D01*
X197752Y127866D01*
X197743Y127899D01*
X197752Y127919D01*
X197780Y127925D01*
Y128925D01*
X197752Y128932D01*
X197743Y128952D01*
X197752Y128985D01*
X197779Y129031D01*
X197825Y129091D01*
X197888Y129164D01*
X198070Y129350D01*
X198325Y129589D01*
Y127262D01*
D02*
G37*
G36*
X201393Y129940D02*
X201638Y129751D01*
X201900Y129584D01*
X202180Y129440D01*
X202477Y129317D01*
X202792Y129217D01*
X203125Y129139D01*
X203475Y129084D01*
X203843Y129051D01*
X204229Y129039D01*
Y125890D01*
X203843Y125879D01*
X203475Y125845D01*
X203125Y125790D01*
X202792Y125712D01*
X202477Y125612D01*
X202180Y125489D01*
X201900Y125345D01*
X201638Y125178D01*
X201393Y124989D01*
X201167Y124778D01*
Y130152D01*
X201393Y129940D01*
D02*
G37*
G36*
X73585Y206855D02*
X73644Y205838D01*
X73700Y205393D01*
X73773Y204990D01*
X73864Y204630D01*
X73973Y204311D01*
X74099Y204035D01*
X74243Y203802D01*
X74404Y203610D01*
X73697Y202903D01*
X73506Y203065D01*
X73272Y203208D01*
X72996Y203335D01*
X72678Y203443D01*
X72317Y203534D01*
X71914Y203607D01*
X71469Y203663D01*
X70452Y203722D01*
X69880Y203725D01*
X73583Y207427D01*
X73585Y206855D01*
D02*
G37*
G36*
X75700Y172918D02*
X75710Y172804D01*
X75726Y172696D01*
X75749Y172594D01*
X75779Y172497D01*
X75814Y172407D01*
X75857Y172322D01*
X75906Y172243D01*
X75962Y172170D01*
X76024Y172103D01*
X74370D01*
X74432Y172170D01*
X74488Y172243D01*
X74537Y172322D01*
X74579Y172407D01*
X74615Y172497D01*
X74645Y172594D01*
X74667Y172696D01*
X74684Y172804D01*
X74694Y172918D01*
X74697Y173039D01*
X75697D01*
X75700Y172918D01*
D02*
G37*
G36*
X179490Y190197D02*
X179302Y190184D01*
X179103Y190140D01*
X178892Y190067D01*
X178668Y189963D01*
X178434Y189830D01*
X178187Y189666D01*
X177929Y189472D01*
X177377Y188994D01*
X177084Y188709D01*
X174300Y191493D01*
X174584Y191787D01*
X175062Y192339D01*
X175256Y192597D01*
X175420Y192843D01*
X175554Y193078D01*
X175657Y193301D01*
X175731Y193512D01*
X175774Y193712D01*
X175787Y193900D01*
X179490Y190197D01*
D02*
G37*
G36*
X159470Y167225D02*
X159535Y166690D01*
X159644Y166168D01*
X159795Y165659D01*
X159990Y165164D01*
X160228Y164681D01*
X160510Y164211D01*
X160835Y163754D01*
X161203Y163310D01*
X161614Y162879D01*
X153347D01*
X153758Y163310D01*
X154126Y163754D01*
X154451Y164211D01*
X154732Y164681D01*
X154971Y165164D01*
X155165Y165659D01*
X155317Y166168D01*
X155425Y166690D01*
X155490Y167225D01*
X155512Y167772D01*
X159449D01*
X159470Y167225D01*
D02*
G37*
G36*
X140578Y145819D02*
X140697Y145788D01*
X140893Y145760D01*
X141169Y145736D01*
X143059Y145677D01*
X144476Y145669D01*
Y141732D01*
X140539Y141548D01*
Y145854D01*
X140578Y145819D01*
D02*
G37*
G36*
X161203Y154013D02*
X160835Y153569D01*
X160510Y153112D01*
X160228Y152642D01*
X159990Y152159D01*
X159795Y151663D01*
X159644Y151155D01*
X159535Y150633D01*
X159470Y150098D01*
X159449Y149550D01*
X155703D01*
X159449Y148453D01*
X159477Y147677D01*
X159560Y146924D01*
X159699Y146195D01*
X159894Y145488D01*
X160145Y144805D01*
X160451Y144144D01*
X160813Y143506D01*
X161231Y142892D01*
X161704Y142301D01*
X162233Y141732D01*
X159449Y138948D01*
X158880Y139477D01*
X158289Y139951D01*
X157675Y140368D01*
X157037Y140730D01*
X156377Y141036D01*
X155693Y141287D01*
X154986Y141482D01*
X154257Y141621D01*
X153504Y141704D01*
X152728Y141732D01*
X151575Y145669D01*
X152323Y145709D01*
X152992Y145827D01*
X153583Y146024D01*
X154095Y146299D01*
X154527Y146654D01*
X154882Y147087D01*
X155157Y147599D01*
X155354Y148189D01*
X155472Y148858D01*
X155510Y149582D01*
X155490Y150098D01*
X155425Y150633D01*
X155317Y151155D01*
X155165Y151663D01*
X154971Y152159D01*
X154732Y152642D01*
X154451Y153112D01*
X154126Y153569D01*
X153758Y154013D01*
X153347Y154444D01*
X161614D01*
X161203Y154013D01*
D02*
G37*
G36*
X163012Y121285D02*
X163071Y120614D01*
X163169Y120021D01*
X163307Y119508D01*
X163484Y119073D01*
X163701Y118718D01*
X163957Y118442D01*
X164252Y118244D01*
X164587Y118126D01*
X164961Y118086D01*
X157087D01*
X157461Y118126D01*
X157795Y118244D01*
X158090Y118442D01*
X158346Y118718D01*
X158563Y119073D01*
X158740Y119508D01*
X158878Y120021D01*
X158976Y120614D01*
X159035Y121285D01*
X159055Y122035D01*
X162992D01*
X163012Y121285D01*
D02*
G37*
G36*
X259850Y133724D02*
X259275Y133715D01*
X257806Y133586D01*
X257402Y133510D01*
X257041Y133416D01*
X256722Y133306D01*
X256447Y133180D01*
X256214Y133036D01*
X256024Y132876D01*
X255309Y133575D01*
X255471Y133768D01*
X255615Y134002D01*
X255741Y134278D01*
X255848Y134597D01*
X255937Y134956D01*
X256007Y135358D01*
X256059Y135802D01*
X256107Y136814D01*
X256103Y137383D01*
X259850Y133724D01*
D02*
G37*
G36*
X253099Y121431D02*
X252934Y121236D01*
X252788Y120997D01*
X252660Y120714D01*
X252550Y120387D01*
X252457Y120016D01*
X252382Y119601D01*
X252326Y119143D01*
X252266Y118094D01*
X252264Y117503D01*
X248464Y121303D01*
X249054Y121306D01*
X250562Y121422D01*
X250977Y121496D01*
X251347Y121589D01*
X251674Y121699D01*
X251957Y121827D01*
X252196Y121974D01*
X252391Y122138D01*
X253099Y121431D01*
D02*
G37*
D12*
X259291Y147109D02*
Y148425D01*
X247559Y129213D02*
X248504D01*
X259291Y127109D02*
Y128425D01*
X69843Y207465D02*
X75197Y202110D01*
Y171260D02*
Y202110D01*
X197780Y128425D02*
X199386D01*
X69843Y207465D02*
X70094D01*
X113504Y232677D02*
X121311Y224870D01*
X113504Y232677D02*
X113780Y232953D01*
X121311Y166091D02*
Y224870D01*
Y166091D02*
X123622Y163779D01*
X131496D01*
X248425Y147465D02*
Y157465D01*
Y167465D02*
X259843D01*
X248425Y177465D02*
X259843D01*
X259291Y157465D02*
Y158425D01*
X254331Y151969D02*
X259827Y157465D01*
X259843D01*
X254331Y143370D02*
Y151969D01*
X248425Y137465D02*
X254331Y143370D01*
X259843Y137402D02*
Y137465D01*
X254331Y131890D02*
X259843Y137402D01*
X254331Y123370D02*
Y131890D01*
X248425Y117465D02*
X254331Y123370D01*
X82284Y232677D02*
X113504D01*
X98819Y171811D02*
X112205Y158425D01*
X197780D02*
X197795D01*
D15*
X114843Y114961D02*
D03*
X125315D02*
D03*
D16*
X161024Y114961D02*
D03*
X185433D02*
D03*
D17*
X82284Y209252D02*
D03*
Y190748D02*
D03*
D18*
X95669Y157087D02*
D03*
D19*
X131496Y170472D02*
D03*
Y163779D02*
D03*
Y157087D02*
D03*
Y150394D02*
D03*
Y143701D02*
D03*
D20*
X113780Y193976D02*
D03*
Y232953D02*
D03*
D21*
X156693Y213779D02*
D03*
Y193307D02*
D03*
D22*
X201968Y214133D02*
D03*
Y196733D02*
D03*
X219685D02*
D03*
Y214133D02*
D03*
D39*
X152362Y114961D02*
X159449D01*
X125315D02*
X152362D01*
X114342Y115461D02*
X114843Y114961D01*
X100000Y115461D02*
X114342D01*
X131496Y143701D02*
X157480D01*
X219685Y214133D02*
Y220079D01*
X214961Y224803D02*
X219685Y220079D01*
X201968Y219685D02*
X207087Y224803D01*
X201968Y213424D02*
Y219685D01*
X82284Y190748D02*
X110551D01*
X113780Y193976D01*
X157480Y158661D02*
Y171890D01*
X118110Y153150D02*
Y180709D01*
X179527Y213937D02*
X179527Y213937D01*
X179370Y213779D02*
X179527Y213937D01*
Y228346D01*
X113780Y185039D02*
X118110Y180709D01*
X113780Y185039D02*
Y193976D01*
X118110Y153150D02*
X120866Y150394D01*
X152756Y107480D02*
Y114567D01*
X152362Y114961D02*
X152756Y114567D01*
X159449Y114961D02*
X159449Y114961D01*
X161024D01*
X131496Y150394D02*
X131496Y150394D01*
X120866Y150394D02*
X131496D01*
X157480Y171890D02*
X179527Y193937D01*
X156693Y213779D02*
X179370D01*
X137520Y232953D02*
X156693Y213779D01*
X113780Y232953D02*
X137520D01*
X157480Y143701D02*
Y158661D01*
Y143701D02*
X161024Y140157D01*
Y114961D02*
Y140157D01*
D40*
X241574Y180157D02*
X248031Y186614D01*
X241574Y147086D02*
Y180157D01*
X248031Y186614D02*
Y228346D01*
X243307Y187520D02*
Y224803D01*
X237795Y182008D02*
X243307Y187520D01*
X237795Y149606D02*
Y182008D01*
X229921Y161417D02*
Y228346D01*
X233759Y223129D02*
X235433Y224803D01*
X233759Y151476D02*
Y223129D01*
X225654Y137465D02*
X237795Y149606D01*
X198425Y137465D02*
X225654D01*
X229748Y147465D02*
X233759Y151476D01*
X198425Y147465D02*
X229748D01*
X225969Y157465D02*
X229921Y161417D01*
X198425Y157465D02*
X225969D01*
X221953Y127465D02*
X241574Y147086D01*
X198425Y127465D02*
X221953D01*
X229921Y228346D02*
X234252Y232677D01*
X198425Y127465D02*
X199386Y128425D01*
X243307Y232677D02*
X243701D01*
X248031Y228346D01*
X234252Y232677D02*
X235433D01*
D41*
X177165Y158661D02*
D03*
X157480D02*
D03*
D42*
X82284Y232677D02*
D03*
Y222677D02*
D03*
X207087Y232677D02*
D03*
X214961D02*
D03*
Y224803D02*
D03*
X207087D02*
D03*
X179527Y228346D02*
D03*
X189527D02*
D03*
X235433Y232677D02*
D03*
X243307D02*
D03*
Y224803D02*
D03*
X235433D02*
D03*
D43*
X86221Y115461D02*
D03*
X100000D02*
D03*
D44*
X259843Y127465D02*
D03*
Y137465D02*
D03*
Y147465D02*
D03*
Y157465D02*
D03*
Y167465D02*
D03*
Y177465D02*
D03*
Y193465D02*
D03*
Y203465D02*
D03*
Y213465D02*
D03*
Y223465D02*
D03*
Y233465D02*
D03*
Y117465D02*
D03*
Y107465D02*
D03*
X69843D02*
D03*
Y117465D02*
D03*
Y127465D02*
D03*
Y137465D02*
D03*
Y147465D02*
D03*
Y157465D02*
D03*
Y177465D02*
D03*
Y187465D02*
D03*
Y197465D02*
D03*
Y207465D02*
D03*
Y217465D02*
D03*
Y227465D02*
D03*
X179527Y193937D02*
D03*
Y203937D02*
D03*
Y213937D02*
D03*
D45*
X248425Y107465D02*
D03*
D46*
Y117465D02*
D03*
Y127465D02*
D03*
Y137465D02*
D03*
Y147465D02*
D03*
Y157465D02*
D03*
Y167465D02*
D03*
Y177465D02*
D03*
X198425Y107465D02*
D03*
Y117465D02*
D03*
Y127465D02*
D03*
Y137465D02*
D03*
Y147465D02*
D03*
Y157465D02*
D03*
Y167465D02*
D03*
Y177465D02*
D03*
D47*
X212598Y185630D02*
D03*
X75197Y171260D02*
D03*
D48*
X152756Y107480D02*
D03*
M02*
