G04*
G04 #@! TF.GenerationSoftware,Altium Limited,Altium Designer,18.1.7 (191)*
G04*
G04 Layer_Color=16711935*
%FSLAX25Y25*%
%MOIN*%
G70*
G01*
G75*
%ADD31C,0.12611*%
%ADD32C,0.05524*%
%ADD33C,0.08674*%
%ADD34C,0.08280*%
%ADD35R,0.08477X0.08477*%
%ADD36C,0.08477*%
%ADD37C,0.03162*%
%ADD38C,0.05800*%
%ADD57R,0.04737X0.04737*%
%ADD58R,0.06706X0.05918*%
%ADD59R,0.05918X0.06706*%
%ADD60R,0.04737X0.04737*%
%ADD61R,0.04737X0.04343*%
%ADD62R,0.14580X0.11824*%
%ADD63R,0.02965X0.07296*%
G36*
X249384Y193465D02*
X223031D01*
Y196850D01*
X221022D01*
Y207054D01*
X223228D01*
Y220363D01*
X249384D01*
Y193465D01*
D02*
G37*
D31*
X177165Y158661D02*
D03*
X157480D02*
D03*
D32*
X82284Y232677D02*
D03*
Y222677D02*
D03*
X207087Y232677D02*
D03*
X214961D02*
D03*
Y224803D02*
D03*
X207087D02*
D03*
X179527Y228346D02*
D03*
X189527D02*
D03*
X235433Y232677D02*
D03*
X243307D02*
D03*
Y224803D02*
D03*
X235433D02*
D03*
D33*
X86221Y115461D02*
D03*
X100000D02*
D03*
D34*
X259843Y127465D02*
D03*
Y137465D02*
D03*
Y147465D02*
D03*
Y157465D02*
D03*
Y167465D02*
D03*
Y177465D02*
D03*
Y193465D02*
D03*
Y203465D02*
D03*
Y213465D02*
D03*
Y223465D02*
D03*
Y233465D02*
D03*
Y117465D02*
D03*
Y107465D02*
D03*
X69843D02*
D03*
Y117465D02*
D03*
Y127465D02*
D03*
Y137465D02*
D03*
Y147465D02*
D03*
Y157465D02*
D03*
Y177465D02*
D03*
Y187465D02*
D03*
Y197465D02*
D03*
Y207465D02*
D03*
Y217465D02*
D03*
Y227465D02*
D03*
X179527Y193937D02*
D03*
Y203937D02*
D03*
Y213937D02*
D03*
D35*
X248425Y107465D02*
D03*
D36*
Y117465D02*
D03*
Y127465D02*
D03*
Y137465D02*
D03*
Y147465D02*
D03*
Y157465D02*
D03*
Y167465D02*
D03*
Y177465D02*
D03*
X198425Y107465D02*
D03*
Y117465D02*
D03*
Y127465D02*
D03*
Y137465D02*
D03*
Y147465D02*
D03*
Y157465D02*
D03*
Y167465D02*
D03*
Y177465D02*
D03*
D37*
X212598Y185630D02*
D03*
X75197Y171260D02*
D03*
D38*
X152756Y107480D02*
D03*
D57*
X209055Y107480D02*
D03*
Y113780D02*
D03*
X195669Y214173D02*
D03*
Y207874D02*
D03*
D58*
X188583Y107283D02*
D03*
Y113976D02*
D03*
X195669Y195866D02*
D03*
Y189173D02*
D03*
D59*
X89173Y192913D02*
D03*
X82480D02*
D03*
D60*
X82284Y184252D02*
D03*
X88583D02*
D03*
D61*
X207480Y169437D02*
D03*
Y162744D02*
D03*
X214567Y169437D02*
D03*
Y162744D02*
D03*
D62*
X211024Y201969D02*
D03*
D63*
X203150Y213090D02*
D03*
X206299D02*
D03*
X209449D02*
D03*
X212598D02*
D03*
X215748D02*
D03*
X218898D02*
D03*
X203150Y190847D02*
D03*
X206299D02*
D03*
X209449D02*
D03*
X212598D02*
D03*
X215748D02*
D03*
X218898D02*
D03*
M02*
