G04*
G04 #@! TF.GenerationSoftware,Altium Limited,Altium Designer,18.1.7 (191)*
G04*
G04 Layer_Color=8388736*
%FSLAX25Y25*%
%MOIN*%
G70*
G01*
G75*
%ADD23R,0.06391X0.07808*%
%ADD24R,0.14186X0.07099*%
%ADD25R,0.09461X0.10642*%
%ADD26R,0.37808X0.43320*%
%ADD27R,0.18910X0.05131*%
%ADD28R,0.12217X0.22060*%
%ADD29R,0.08674X0.14580*%
%ADD30R,0.11600X0.09300*%
%ADD31C,0.12611*%
%ADD32C,0.05524*%
%ADD33C,0.08674*%
%ADD34C,0.08280*%
%ADD35R,0.08477X0.08477*%
%ADD36C,0.08477*%
%ADD37C,0.03162*%
%ADD38C,0.05800*%
D23*
X114843Y114961D02*
D03*
X125315D02*
D03*
D24*
X161024Y114961D02*
D03*
X185433D02*
D03*
D25*
X82284Y209252D02*
D03*
Y190748D02*
D03*
D26*
X95669Y157087D02*
D03*
D27*
X131496Y170472D02*
D03*
Y163779D02*
D03*
Y157087D02*
D03*
Y150394D02*
D03*
Y143701D02*
D03*
D28*
X113780Y193976D02*
D03*
Y232953D02*
D03*
D29*
X156693Y213779D02*
D03*
Y193307D02*
D03*
D30*
X201968Y214133D02*
D03*
Y196733D02*
D03*
X219685D02*
D03*
Y214133D02*
D03*
D31*
X177165Y158661D02*
D03*
X157480D02*
D03*
D32*
X82284Y232677D02*
D03*
Y222677D02*
D03*
X207087Y232677D02*
D03*
X214961D02*
D03*
Y224803D02*
D03*
X207087D02*
D03*
X179527Y228346D02*
D03*
X189527D02*
D03*
X235433Y232677D02*
D03*
X243307D02*
D03*
Y224803D02*
D03*
X235433D02*
D03*
D33*
X86221Y115461D02*
D03*
X100000D02*
D03*
D34*
X259843Y127465D02*
D03*
Y137465D02*
D03*
Y147465D02*
D03*
Y157465D02*
D03*
Y167465D02*
D03*
Y177465D02*
D03*
Y193465D02*
D03*
Y203465D02*
D03*
Y213465D02*
D03*
Y223465D02*
D03*
Y233465D02*
D03*
Y117465D02*
D03*
Y107465D02*
D03*
X69843D02*
D03*
Y117465D02*
D03*
Y127465D02*
D03*
Y137465D02*
D03*
Y147465D02*
D03*
Y157465D02*
D03*
Y177465D02*
D03*
Y187465D02*
D03*
Y197465D02*
D03*
Y207465D02*
D03*
Y217465D02*
D03*
Y227465D02*
D03*
X179527Y193937D02*
D03*
Y203937D02*
D03*
Y213937D02*
D03*
D35*
X248425Y107465D02*
D03*
D36*
Y117465D02*
D03*
Y127465D02*
D03*
Y137465D02*
D03*
Y147465D02*
D03*
Y157465D02*
D03*
Y167465D02*
D03*
Y177465D02*
D03*
X198425Y107465D02*
D03*
Y117465D02*
D03*
Y127465D02*
D03*
Y137465D02*
D03*
Y147465D02*
D03*
Y157465D02*
D03*
Y167465D02*
D03*
Y177465D02*
D03*
D37*
X212598Y185630D02*
D03*
X75197Y171260D02*
D03*
D38*
X152756Y107480D02*
D03*
M02*
