G04*
G04 #@! TF.GenerationSoftware,Altium Limited,Altium Designer,18.1.7 (191)*
G04*
G04 Layer_Color=32768*
%FSLAX25Y25*%
%MOIN*%
G70*
G01*
G75*
%ADD11C,0.00197*%
%ADD13C,0.00394*%
D11*
X199213Y185630D02*
Y218307D01*
X222835Y185630D02*
Y218307D01*
X199213D02*
X222835D01*
X199213Y185630D02*
X222835D01*
D13*
X207185Y110630D02*
X210925D01*
X209055Y108760D02*
Y112500D01*
X212008Y104528D02*
Y116732D01*
X206102Y104528D02*
Y116732D01*
Y104528D02*
X212008D01*
X206102Y116732D02*
X212008D01*
X186614Y110630D02*
X190551D01*
X188583Y108661D02*
Y112598D01*
X192520Y103740D02*
Y117520D01*
X184646Y103740D02*
Y117520D01*
Y103740D02*
X192520D01*
X184646Y117520D02*
X192520D01*
X92716Y188976D02*
Y196850D01*
X78937Y188976D02*
Y196850D01*
X92716D01*
X78937Y188976D02*
X92716D01*
X83858Y192913D02*
X87795D01*
X85827Y190945D02*
Y194882D01*
X85433Y182382D02*
Y186122D01*
X83563Y184252D02*
X87303D01*
X79331Y181299D02*
X91536D01*
X79331Y187205D02*
X91536D01*
X79331Y181299D02*
Y187205D01*
X91536Y181299D02*
Y187205D01*
X205610Y166091D02*
X209350D01*
X207480Y164220D02*
Y167961D01*
X204527Y159988D02*
Y172193D01*
X210433Y159988D02*
Y172193D01*
X204527D02*
X210433D01*
X204527Y159988D02*
X210433D01*
X212697Y166091D02*
X216437D01*
X214567Y164221D02*
Y167961D01*
X211614Y159988D02*
Y172193D01*
X217520Y159988D02*
Y172193D01*
X211614D02*
X217520D01*
X211614Y159988D02*
X217520D01*
X193701Y192520D02*
X197638D01*
X195669Y190551D02*
Y194488D01*
X191732Y185630D02*
Y199409D01*
X199606Y185630D02*
Y199409D01*
X191732D02*
X199606D01*
X191732Y185630D02*
X199606D01*
X192717Y217126D02*
X198622D01*
X192717Y204921D02*
X198622D01*
X192717D02*
Y217126D01*
X198622Y204921D02*
Y217126D01*
X195669Y209154D02*
Y212894D01*
X193799Y211024D02*
X197539D01*
X209055Y201969D02*
X212992D01*
X211024Y200000D02*
Y203937D01*
M02*
