G04*
G04 #@! TF.GenerationSoftware,Altium Limited,Altium Designer,18.1.7 (191)*
G04*
G04 Layer_Color=255*
%FSLAX25Y25*%
%MOIN*%
G70*
G01*
G75*
%ADD15R,0.05591X0.07008*%
%ADD16R,0.13386X0.06299*%
%ADD17R,0.08661X0.09843*%
%ADD18R,0.37008X0.42520*%
%ADD19R,0.18110X0.04331*%
%ADD20R,0.11417X0.21260*%
%ADD21R,0.07874X0.13780*%
%ADD22R,0.10800X0.08500*%
%ADD41C,0.11811*%
%ADD42C,0.04724*%
%ADD43C,0.07874*%
%ADD44C,0.07480*%
%ADD45R,0.07677X0.07677*%
%ADD46C,0.07677*%
D15*
X114843Y114961D02*
D03*
X125315D02*
D03*
D16*
X161024Y114961D02*
D03*
X185433D02*
D03*
D17*
X82284Y209252D02*
D03*
Y190748D02*
D03*
D18*
X95669Y157087D02*
D03*
D19*
X131496Y170472D02*
D03*
Y163779D02*
D03*
Y157087D02*
D03*
Y150394D02*
D03*
Y143701D02*
D03*
D20*
X113780Y193976D02*
D03*
Y232953D02*
D03*
D21*
X156693Y213779D02*
D03*
Y193307D02*
D03*
D22*
X201968Y214133D02*
D03*
Y196733D02*
D03*
X219685D02*
D03*
Y214133D02*
D03*
D41*
X177165Y158661D02*
D03*
X157480D02*
D03*
D42*
X82284Y232677D02*
D03*
Y222677D02*
D03*
X207087Y232677D02*
D03*
X214961D02*
D03*
Y224803D02*
D03*
X207087D02*
D03*
X179527Y228346D02*
D03*
X189527D02*
D03*
X235433Y232677D02*
D03*
X243307D02*
D03*
Y224803D02*
D03*
X235433D02*
D03*
D43*
X86221Y115461D02*
D03*
X100000D02*
D03*
D44*
X259843Y127465D02*
D03*
Y137465D02*
D03*
Y147465D02*
D03*
Y157465D02*
D03*
Y167465D02*
D03*
Y177465D02*
D03*
Y193465D02*
D03*
Y203465D02*
D03*
Y213465D02*
D03*
Y223465D02*
D03*
Y233465D02*
D03*
Y117465D02*
D03*
Y107465D02*
D03*
X69843D02*
D03*
Y117465D02*
D03*
Y127465D02*
D03*
Y137465D02*
D03*
Y147465D02*
D03*
Y157465D02*
D03*
Y177465D02*
D03*
Y187465D02*
D03*
Y197465D02*
D03*
Y207465D02*
D03*
Y217465D02*
D03*
Y227465D02*
D03*
X179527Y193937D02*
D03*
Y203937D02*
D03*
Y213937D02*
D03*
D45*
X248425Y107465D02*
D03*
D46*
Y117465D02*
D03*
Y127465D02*
D03*
Y137465D02*
D03*
Y147465D02*
D03*
Y157465D02*
D03*
Y167465D02*
D03*
Y177465D02*
D03*
X198425Y107465D02*
D03*
Y117465D02*
D03*
Y127465D02*
D03*
Y137465D02*
D03*
Y147465D02*
D03*
Y157465D02*
D03*
Y167465D02*
D03*
Y177465D02*
D03*
M02*
