G04*
G04 #@! TF.GenerationSoftware,Altium Limited,Altium Designer,18.1.7 (191)*
G04*
G04 Layer_Color=255*
%FSLAX25Y25*%
%MOIN*%
G70*
G01*
G75*
%ADD41C,0.11811*%
%ADD42C,0.04724*%
%ADD43C,0.07874*%
%ADD44C,0.07480*%
%ADD45R,0.07677X0.07677*%
%ADD46C,0.07677*%
%ADD49R,0.03937X0.03937*%
%ADD50R,0.05906X0.05118*%
%ADD51R,0.05118X0.05906*%
%ADD52R,0.03937X0.03937*%
%ADD53R,0.03937X0.03543*%
%ADD54R,0.13780X0.11024*%
%ADD55R,0.02165X0.06496*%
D41*
X177165Y158661D02*
D03*
X157480D02*
D03*
D42*
X82284Y232677D02*
D03*
Y222677D02*
D03*
X207087Y232677D02*
D03*
X214961D02*
D03*
Y224803D02*
D03*
X207087D02*
D03*
X179527Y228346D02*
D03*
X189527D02*
D03*
X235433Y232677D02*
D03*
X243307D02*
D03*
Y224803D02*
D03*
X235433D02*
D03*
D43*
X86221Y115461D02*
D03*
X100000D02*
D03*
D44*
X259843Y127465D02*
D03*
Y137465D02*
D03*
Y147465D02*
D03*
Y157465D02*
D03*
Y167465D02*
D03*
Y177465D02*
D03*
Y193465D02*
D03*
Y203465D02*
D03*
Y213465D02*
D03*
Y223465D02*
D03*
Y233465D02*
D03*
Y117465D02*
D03*
Y107465D02*
D03*
X69843D02*
D03*
Y117465D02*
D03*
Y127465D02*
D03*
Y137465D02*
D03*
Y147465D02*
D03*
Y157465D02*
D03*
Y177465D02*
D03*
Y187465D02*
D03*
Y197465D02*
D03*
Y207465D02*
D03*
Y217465D02*
D03*
Y227465D02*
D03*
X179527Y193937D02*
D03*
Y203937D02*
D03*
Y213937D02*
D03*
D45*
X248425Y107465D02*
D03*
D46*
Y117465D02*
D03*
Y127465D02*
D03*
Y137465D02*
D03*
Y147465D02*
D03*
Y157465D02*
D03*
Y167465D02*
D03*
Y177465D02*
D03*
X198425Y107465D02*
D03*
Y117465D02*
D03*
Y127465D02*
D03*
Y137465D02*
D03*
Y147465D02*
D03*
Y157465D02*
D03*
Y167465D02*
D03*
Y177465D02*
D03*
D49*
X209055Y107480D02*
D03*
Y113780D02*
D03*
X195669Y214173D02*
D03*
Y207874D02*
D03*
D50*
X188583Y107283D02*
D03*
Y113976D02*
D03*
X195669Y195866D02*
D03*
Y189173D02*
D03*
D51*
X89173Y192913D02*
D03*
X82480D02*
D03*
D52*
X82284Y184252D02*
D03*
X88583D02*
D03*
D53*
X207480Y169437D02*
D03*
Y162744D02*
D03*
X214567Y169437D02*
D03*
Y162744D02*
D03*
D54*
X211024Y201969D02*
D03*
D55*
X203150Y213090D02*
D03*
X206299D02*
D03*
X209449D02*
D03*
X212598D02*
D03*
X215748D02*
D03*
X218898D02*
D03*
X203150Y190847D02*
D03*
X206299D02*
D03*
X209449D02*
D03*
X212598D02*
D03*
X215748D02*
D03*
X218898D02*
D03*
M02*
