G04*
G04 #@! TF.GenerationSoftware,Altium Limited,Altium Designer,18.1.7 (191)*
G04*
G04 Layer_Color=65535*
%FSLAX25Y25*%
%MOIN*%
G70*
G01*
G75*
%ADD10C,0.00787*%
%ADD11C,0.00197*%
%ADD12C,0.01000*%
%ADD13C,0.00394*%
%ADD14C,0.00591*%
D10*
X191929Y158661D02*
G03*
X191929Y158661I-24606J0D01*
G01*
X157874Y101181D02*
Y116535D01*
Y128740D01*
Y101181D02*
X183071D01*
X188189Y106299D01*
Y123228D01*
X157874Y128740D02*
X182677D01*
X188189Y123228D01*
X136543Y159055D02*
X140543D01*
X138543Y157055D02*
Y161055D01*
X104823Y188169D02*
X138484D01*
Y238366D01*
X88878D02*
X138484D01*
X88878Y188169D02*
Y238366D01*
Y188169D02*
X104823D01*
X141339Y185039D02*
X156693D01*
X141339D02*
Y217192D01*
X146194Y222047D01*
X167192D01*
X172047Y217192D01*
X156693Y185039D02*
X172047D01*
Y217192D01*
D11*
X128779Y112811D02*
Y117111D01*
X111379Y119161D02*
X128779D01*
X111327Y114961D02*
Y119161D01*
X115779Y110761D02*
X124479D01*
X111327D02*
Y114961D01*
Y110761D02*
X115779D01*
X124479D02*
X128779D01*
Y112811D01*
Y117111D02*
Y119161D01*
D12*
X80610Y200787D02*
X82284Y199114D01*
X80610Y200787D02*
X83957D01*
X82284Y199114D02*
X82284D01*
X83957Y200787D01*
X83957D02*
X83957D01*
X83366Y200197D02*
X83957Y200787D01*
X81595Y200197D02*
X83366D01*
X186028Y187437D02*
Y220437D01*
X173528D02*
X186028D01*
X176028Y187437D02*
X186028D01*
X173528Y189937D02*
X176028Y187437D01*
X173528Y189937D02*
Y220437D01*
X235041Y114111D02*
X232417D01*
X231105Y115423D01*
X232417Y116735D01*
X235041D01*
X233073D01*
Y114111D01*
X235041Y120015D02*
X231105D01*
X233073Y118047D01*
Y120671D01*
X234385Y121983D02*
X235041Y122639D01*
Y123951D01*
X234385Y124606D01*
X231761D01*
X231105Y123951D01*
Y122639D01*
X231761Y121983D01*
X232417D01*
X233073Y122639D01*
Y124606D01*
X231761Y125918D02*
X231105Y126574D01*
Y127886D01*
X231761Y128542D01*
X232417D01*
X233073Y127886D01*
X233729Y128542D01*
X234385D01*
X235041Y127886D01*
Y126574D01*
X234385Y125918D01*
X233729D01*
X233073Y126574D01*
X232417Y125918D01*
X231761D01*
X233073Y126574D02*
Y127886D01*
X231761Y129854D02*
X231105Y130510D01*
Y131822D01*
X231761Y132478D01*
X232417D01*
X233073Y131822D01*
X233729Y132478D01*
X234385D01*
X235041Y131822D01*
Y130510D01*
X234385Y129854D01*
X233729D01*
X233073Y130510D01*
X232417Y129854D01*
X231761D01*
X233073Y130510D02*
Y131822D01*
X235041Y137725D02*
X231105D01*
X232417Y139038D01*
X231105Y140349D01*
X235041D01*
Y142317D02*
Y143629D01*
X234385Y144285D01*
X233073D01*
X232417Y143629D01*
Y142317D01*
X233073Y141661D01*
X234385D01*
X235041Y142317D01*
X231761Y146253D02*
X232417D01*
Y145597D01*
Y146909D01*
Y146253D01*
X234385D01*
X235041Y146909D01*
Y149533D02*
Y150845D01*
X234385Y151501D01*
X233073D01*
X232417Y150845D01*
Y149533D01*
X233073Y148877D01*
X234385D01*
X235041Y149533D01*
X232417Y152813D02*
X235041D01*
X233729D01*
X233073Y153469D01*
X232417Y154124D01*
Y154780D01*
X238228Y114111D02*
X242164D01*
Y116079D01*
X241508Y116735D01*
X238884D01*
X238228Y116079D01*
Y114111D01*
X239540Y118047D02*
X242164D01*
X240852D01*
X240196Y118703D01*
X239540Y119359D01*
Y120015D01*
X242164Y121983D02*
Y123294D01*
Y122639D01*
X239540D01*
Y121983D01*
Y125262D02*
X242164Y126574D01*
X239540Y127886D01*
X242164Y131166D02*
Y129854D01*
X241508Y129198D01*
X240196D01*
X239540Y129854D01*
Y131166D01*
X240196Y131822D01*
X240852D01*
Y129198D01*
X239540Y133134D02*
X242164D01*
X240852D01*
X240196Y133790D01*
X239540Y134446D01*
Y135102D01*
X238228Y141005D02*
X242164D01*
X240196D01*
Y143629D01*
X238228D01*
X242164D01*
Y146909D02*
Y145597D01*
X241508Y144941D01*
X240196D01*
X239540Y145597D01*
Y146909D01*
X240196Y147565D01*
X240852D01*
Y144941D01*
X239540Y149533D02*
Y150845D01*
X240196Y151501D01*
X242164D01*
Y149533D01*
X241508Y148877D01*
X240852Y149533D01*
Y151501D01*
X238228Y155436D02*
X242164D01*
Y153469D01*
X241508Y152813D01*
X240196D01*
X239540Y153469D01*
Y155436D01*
X242164Y158716D02*
Y157404D01*
X241508Y156748D01*
X240196D01*
X239540Y157404D01*
Y158716D01*
X240196Y159372D01*
X240852D01*
Y156748D01*
X239540Y160684D02*
X242164D01*
X240852D01*
X240196Y161340D01*
X239540Y161996D01*
Y162652D01*
X65567Y244855D02*
Y246954D01*
X66616Y248004D01*
X67666Y246954D01*
Y244855D01*
Y246429D01*
X65567D01*
X68716Y244855D02*
Y248004D01*
X70290D01*
X70815Y247479D01*
Y246429D01*
X70290Y245905D01*
X68716D01*
X69765D02*
X70815Y244855D01*
X71864Y248004D02*
Y244855D01*
X73438D01*
X73963Y245380D01*
Y247479D01*
X73438Y248004D01*
X71864D01*
X80260D02*
X78161D01*
Y244855D01*
X80260D01*
X78161Y246429D02*
X79211D01*
X81310Y248004D02*
X83409Y244855D01*
Y248004D02*
X81310Y244855D01*
X84459Y248004D02*
X86558D01*
X85508D01*
Y244855D01*
X65567Y238677D02*
Y241826D01*
X67141D01*
X67666Y241301D01*
Y240251D01*
X67141Y239726D01*
X65567D01*
X68716Y241826D02*
Y238677D01*
X69765Y239726D01*
X70815Y238677D01*
Y241826D01*
X71864Y238677D02*
Y241826D01*
X73438D01*
X73963Y241301D01*
Y240251D01*
X73438Y239726D01*
X71864D01*
X72914D02*
X73963Y238677D01*
X80260Y241826D02*
X78161D01*
Y238677D01*
X80260D01*
X78161Y240251D02*
X79211D01*
X81310Y238677D02*
Y241826D01*
X83409Y238677D01*
Y241826D01*
X80624Y133740D02*
X79968Y134396D01*
X78656D01*
X78000Y133740D01*
Y131117D01*
X78656Y130461D01*
X79968D01*
X80624Y131117D01*
Y132429D01*
X79312D01*
X81936Y130461D02*
Y134396D01*
X84560Y130461D01*
Y134396D01*
X85872D02*
Y130461D01*
X87839D01*
X88495Y131117D01*
Y133740D01*
X87839Y134396D01*
X85872D01*
X121901Y124197D02*
X119277D01*
X117965Y122885D01*
X119277Y121573D01*
X121901D01*
X117965Y120261D02*
Y118949D01*
Y119605D01*
X120589D01*
Y120261D01*
X117965Y116981D02*
X120589D01*
Y115014D01*
X119933Y114357D01*
X117965D01*
X114122Y124197D02*
X114778Y123541D01*
Y122229D01*
X114122Y121573D01*
X113466D01*
X112810Y122229D01*
X112154Y121573D01*
X111498D01*
X110843Y122229D01*
Y123541D01*
X111498Y124197D01*
X112154D01*
X112810Y123541D01*
X113466Y124197D01*
X114122D01*
X112810Y123541D02*
Y122229D01*
X114778Y120261D02*
X112154D01*
X110843Y118949D01*
X112154Y117637D01*
X114778D01*
X112810Y116325D02*
Y113701D01*
X110843Y109766D02*
Y112390D01*
X113466Y109766D01*
X114122D01*
X114778Y110422D01*
Y111734D01*
X114122Y112390D01*
Y108454D02*
X114778Y107798D01*
Y106486D01*
X114122Y105830D01*
X113466D01*
X112810Y106486D01*
X112154Y105830D01*
X111498D01*
X110843Y106486D01*
Y107798D01*
X111498Y108454D01*
X112154D01*
X112810Y107798D01*
X113466Y108454D01*
X114122D01*
X112810Y107798D02*
Y106486D01*
X114778Y104518D02*
X112154D01*
X110843Y103206D01*
X112154Y101894D01*
X114778D01*
X97850Y130461D02*
Y134396D01*
X99818D01*
X100474Y133740D01*
Y132429D01*
X99818Y131773D01*
X97850D01*
X101786Y134396D02*
Y130461D01*
X103098Y131773D01*
X104410Y130461D01*
Y134396D01*
X105722Y130461D02*
Y134396D01*
X107690D01*
X108346Y133740D01*
Y132429D01*
X107690Y131773D01*
X105722D01*
X107034D02*
X108346Y130461D01*
X251101Y208291D02*
X251757Y207635D01*
X253068D01*
X253724Y208291D01*
Y208947D01*
X253068Y209603D01*
X251757D01*
X251101Y210259D01*
Y210915D01*
X251757Y211571D01*
X253068D01*
X253724Y210915D01*
X249133Y208291D02*
Y208947D01*
X249789D01*
X248477D01*
X249133D01*
Y210915D01*
X248477Y211571D01*
X244541D02*
X245853D01*
X246509Y210915D01*
Y209603D01*
X245853Y208947D01*
X244541D01*
X243885Y209603D01*
Y210259D01*
X246509D01*
X242573Y212883D02*
Y208947D01*
X240605D01*
X239949Y209603D01*
Y210915D01*
X240605Y211571D01*
X242573D01*
X238637Y212883D02*
Y208947D01*
X236669D01*
X236014Y209603D01*
Y210915D01*
X236669Y211571D01*
X238637D01*
X232734D02*
X234046D01*
X234702Y210915D01*
Y209603D01*
X234046Y208947D01*
X232734D01*
X232078Y209603D01*
Y210259D01*
X234702D01*
X230766Y208947D02*
Y211571D01*
Y210259D01*
X230110Y209603D01*
X229454Y208947D01*
X228798D01*
X253724Y220006D02*
Y216070D01*
X252413Y217382D01*
X251101Y216070D01*
Y220006D01*
X249133D02*
X247821D01*
X247165Y219350D01*
Y218038D01*
X247821Y217382D01*
X249133D01*
X249789Y218038D01*
Y219350D01*
X249133Y220006D01*
X245197Y216726D02*
Y217382D01*
X245853D01*
X244541D01*
X245197D01*
Y219350D01*
X244541Y220006D01*
X241917D02*
X240605D01*
X239949Y219350D01*
Y218038D01*
X240605Y217382D01*
X241917D01*
X242573Y218038D01*
Y219350D01*
X241917Y220006D01*
X238637Y217382D02*
Y220006D01*
Y218694D01*
X237981Y218038D01*
X237326Y217382D01*
X236669D01*
X198785Y203271D02*
X201784Y206270D01*
X204783Y203271D01*
X216929Y204055D02*
X219928Y207054D01*
X222927Y204055D01*
X191066Y197764D02*
X188442D01*
X187130Y196452D01*
X188442Y195140D01*
X191066D01*
X187130Y193828D02*
Y192516D01*
Y193172D01*
X189754D01*
Y193828D01*
X187130Y190548D02*
X189754D01*
Y188581D01*
X189098Y187925D01*
X187130D01*
X187457Y220472D02*
Y219161D01*
Y219816D01*
X191393D01*
X190736Y220472D01*
X187457Y214569D02*
Y217193D01*
X190080Y214569D01*
X190736D01*
X191393Y215225D01*
Y216537D01*
X190736Y217193D01*
X191393Y213257D02*
X188769D01*
X187457Y211945D01*
X188769Y210633D01*
X191393D01*
X242126Y104094D02*
X241126D01*
Y105094D01*
X242126D01*
Y104094D01*
X177559Y236220D02*
X180183D01*
X178871Y237532D02*
Y234908D01*
X172441Y223914D02*
Y225226D01*
Y224570D01*
X168505D01*
X169161Y223914D01*
X172441Y229817D02*
Y227193D01*
X169817Y229817D01*
X169161D01*
X168505Y229161D01*
Y227849D01*
X169161Y227193D01*
X168505Y231129D02*
X171129D01*
X172441Y232441D01*
X171129Y233753D01*
X168505D01*
X85433Y180316D02*
Y184252D01*
X83465D01*
X82809Y183596D01*
Y180972D01*
X83465Y180316D01*
X85433D01*
X81497Y180972D02*
X80841Y180316D01*
X79530D01*
X78873Y180972D01*
Y181628D01*
X79530Y182284D01*
X80185D01*
X79530D01*
X78873Y182940D01*
Y183596D01*
X79530Y184252D01*
X80841D01*
X81497Y183596D01*
X143369Y181376D02*
X142369Y182376D01*
X140370D01*
X139370Y181376D01*
Y177378D01*
X140370Y176378D01*
X142369D01*
X143369Y177378D01*
X145368Y181376D02*
X146368Y182376D01*
X148367D01*
X149367Y181376D01*
Y180377D01*
X148367Y179377D01*
X149367Y178377D01*
Y177378D01*
X148367Y176378D01*
X146368D01*
X145368Y177378D01*
Y178377D01*
X146368Y179377D01*
X145368Y180377D01*
Y181376D01*
X146368Y179377D02*
X148367D01*
X206850Y183939D02*
Y189937D01*
X203851D01*
X202851Y188937D01*
Y184939D01*
X203851Y183939D01*
X206850D01*
X196853Y189937D02*
X200851D01*
X196853Y185938D01*
Y184939D01*
X197852Y183939D01*
X199852D01*
X200851Y184939D01*
X194883Y247638D02*
X196850Y245670D01*
X194883Y243702D01*
X192915Y245670D02*
X190291D01*
X188979Y243702D02*
X186355D01*
X187667D01*
Y247638D01*
X184387D02*
X183075D01*
X182419Y246982D01*
Y245670D01*
X183075Y245014D01*
X184387D01*
X185043Y245670D01*
Y246982D01*
X184387Y247638D01*
X181107Y245014D02*
Y247638D01*
Y246326D01*
X180452Y245670D01*
X179796Y245014D01*
X179140D01*
X177172Y248950D02*
Y245014D01*
X175204D01*
X174548Y245670D01*
Y246982D01*
X175204Y247638D01*
X177172D01*
X171268D02*
X172580D01*
X173236Y246982D01*
Y245670D01*
X172580Y245014D01*
X171268D01*
X170612Y245670D01*
Y246326D01*
X173236D01*
X166676Y243702D02*
Y247638D01*
X168644D01*
X169300Y246982D01*
Y245670D01*
X168644Y245014D01*
X166676D01*
X164708Y247638D02*
X163397D01*
X162741Y246982D01*
Y245670D01*
X163397Y245014D01*
X164708D01*
X165365Y245670D01*
Y246982D01*
X164708Y247638D01*
X188644Y132951D02*
X187645Y133950D01*
X185645D01*
X184646Y132951D01*
Y128952D01*
X185645Y127952D01*
X187645D01*
X188644Y128952D01*
X190644Y127952D02*
X192643D01*
X191644D01*
Y133950D01*
X190644Y132951D01*
X129528Y246549D02*
Y240551D01*
X133526D01*
X135526D02*
X137525D01*
X136525D01*
Y246549D01*
X135526Y245550D01*
X150455Y229014D02*
X149456Y230014D01*
X147456D01*
X146457Y229014D01*
Y225015D01*
X147456Y224016D01*
X149456D01*
X150455Y225015D01*
X152455D02*
X153454Y224016D01*
X155454D01*
X156454Y225015D01*
Y229014D01*
X155454Y230014D01*
X153454D01*
X152455Y229014D01*
Y228014D01*
X153454Y227015D01*
X156454D01*
X223228Y183844D02*
Y189842D01*
X220229D01*
X219230Y188842D01*
Y184844D01*
X220229Y183844D01*
X223228D01*
X217230Y189842D02*
X215231D01*
X216231D01*
Y183844D01*
X217230Y184844D01*
X125923Y103670D02*
X129921D01*
Y106669D01*
X127922D01*
X129921D01*
Y109669D01*
X123923D02*
X121924D01*
X122924D01*
Y103670D01*
X123923Y104670D01*
X135039Y132978D02*
Y137977D01*
X134040Y138976D01*
X132040D01*
X131041Y137977D01*
Y132978D01*
X125043Y138976D02*
X129041D01*
X125043Y134978D01*
Y133978D01*
X126042Y132978D01*
X128042D01*
X129041Y133978D01*
D13*
X83169Y216929D02*
X88189D01*
Y238583D01*
X76378D02*
X88189D01*
X76378Y216929D02*
Y238583D01*
Y216929D02*
X83169D01*
X224016Y220866D02*
Y263386D01*
X198425D02*
X224016D01*
X198425Y220866D02*
Y263386D01*
Y220866D02*
X224016D01*
X195275Y229232D02*
Y234252D01*
X173622D02*
X195275D01*
X173622Y222441D02*
Y234252D01*
Y222441D02*
X195275D01*
Y229232D01*
X252362Y220866D02*
Y263386D01*
X226772D02*
X252362D01*
X226772Y220866D02*
Y263386D01*
Y220866D02*
X252362D01*
X109000Y113122D02*
Y129461D01*
X77000D02*
X109000D01*
X77000Y101461D02*
Y129461D01*
Y101461D02*
X109000D01*
Y113122D01*
D14*
X203222Y191260D02*
X204232D01*
X210236D01*
Y219606D01*
X193701Y191260D02*
X203222D01*
X193701D02*
Y219606D01*
X210236D01*
X211417D02*
X227953D01*
X211417Y191260D02*
Y219606D01*
Y191260D02*
X220939D01*
X227953D02*
Y219606D01*
X221949Y191260D02*
X227953D01*
X220939D02*
X221949D01*
M02*
